<svg xmlns="http://www.w3.org/2000/svg" viewBox="0 0 1920.17 154.33"><defs><style>.cls-1{fill:#f2f2f2;}</style></defs><title>header-overlay</title><g id="Layer_2" data-name="Layer 2"><g id="_528056347-preview" data-name="528056347-preview"><path class="cls-1" d="M1920.11,114.2c-.72-.4-1.67-.63-2.1-1.24-1.47-2-2.73-4.73-5.82-3-2.58,1.42-5.2.46-7.61.9-4.5.82-10.5-3.91-13.52,3.21a1.26,1.26,0,0,1-2.13.19c-3.37-4.22-9.22-3.5-13.15-6.63-.69-.55-2.71-.75-2.6-.06.72,4.46-4.44,5.92-4.68,9.83-.15,2.59-1.67,2.82-3.86,1.93a55.13,55.13,0,0,0-12.47-3.7,50.34,50.34,0,0,1-10-3.1c-2-.76-4.24-1.7-2.42-4.72.86-1.42-.3-2.65-1.5-2.07-3.17,1.56-5.29,0-7.7-1.63a5.91,5.91,0,0,0-6.2,0,55.85,55.85,0,0,1-16.89,5.1c-7.33,1.11-14.82,2.14-22.3.42-1.56-.35-4.43-.47-4,1.44,1.16,5.17-2.32,3.37-4.5,3.55-1.51.12-3.15,0-4.13,1.36-2.06,2.81-4.35,1.89-7.07,1.11-3.23-.92-6.3-2.93-9.89-2.36-.14,1.13.58,1.33,1.08,1.7,1.45,1.05,2.73,2.39,1.5,4.14-1.43,2-2.84.58-4.15-.51s-2.68-2.24-4.45-1.94c-3.66.63-6.61-1.25-9.29-3-3-1.94-5.34-4.41-9-1.31-.43.37-2.17-.07-2.73-.67-5.7-6.1-12.25-1.75-18.39-1.45-5,.24-9.24,5.14-14.9,3-.59-.22-1.56.44-2.33.74-6.21,2.44-12.38,5.2-18.91.8a6.13,6.13,0,0,0-2.9-.65c-3-.21-6.58,1-7.17-3.94-.17-1.33-1.63-.07-2.47-.1-2.65-.11-6.42,1.56-6.42-3.49,0-1.28-.82-1.35-1.63-.9-2.06,1.16-4,.74-5.91.12a27.22,27.22,0,0,1,.4-3.25c.08-.37.17-.78.25-1.19l3.59.27-2.76-4.9c0-.91.06-1.42.06-1.42a4.43,4.43,0,0,0,1.47-2.45c.08-1.27-.5-1.85-.6-3.31s-.16-6.82-.16-6.82-.41-.67.06-1,1.27-.86,1.06-1.27a2.59,2.59,0,0,0-.53-.69,4.59,4.59,0,0,1-.45-1.8c.07-.68,1.2-4.7,1.17-6a43.15,43.15,0,0,1-.4-5c.12-1.66.13-5.26.29-6,.09-.38.47-.14.78-.31s.7-.34.7-.34a26.58,26.58,0,0,0,3.67,1.71c1.68.59,3.2,1.19,6.51-1.54s4.22-3.72,4.92-3.84,2.56-.6,2.85-1.11.34-.57.12-.83-.29-.25-.29-.25.24-.6,0-.84l-.23-.25a.65.65,0,0,0-.17-.7c-.32-.24-.43-.24-.43-.24a.72.72,0,0,1,.64-.41c.48,0,.68-.82-.24-.7a5.76,5.76,0,0,0-2.16,1A5.27,5.27,0,0,0,1666.4,55a23.13,23.13,0,0,1-5,3.19c-1.66.75-3.51,1.49-3.51,1.49s-.92-.44-1.82-.93v-.63s.64-.24.41-.56l-.22-.33s.33-.63.14-.82l-.19-.19.33-3.31-.74-.1-2.25-1.77-.43.34,1.53,1.2-1.22-.12-.94.41-.39,3.15-.57-.42a7.15,7.15,0,0,0-.6-1.83,7.84,7.84,0,0,1-.33-4.89,39.57,39.57,0,0,0,1.24-3.77,3.73,3.73,0,0,0-.38-1.7c-.07-.22.45-1.73.38-2.28s-.19-1.13-.19-1.13,3.08-.22,3.19-.82-.28-1-1.68-1.05a16.27,16.27,0,0,0-2.13,0s-2.07-2.92-4.39-3.4a8.42,8.42,0,0,0-5.47,1c-1,.54-2.64,2.29-2.81,3.69a14.89,14.89,0,0,0-.15,4.27,5.81,5.81,0,0,1,.27.74,2.43,2.43,0,0,0,.36,1.32l.38.43s-.64,3.34-1.08,4.78c-.07.21-.16.54-.26.93l-.14-.27a5.45,5.45,0,0,0-2.34.71c-.16-1-.52-2.28-1.26-2.28-1.25,0-2.35-.47-2.35,2.35a8.6,8.6,0,0,0,.46,3c-2.09,2.94-2.75,4.15-1.55,5.64l1.25,1.57s-3,3.13-1.88,7,2.19,5.48,3,6.1a20.06,20.06,0,0,0,2.2,1.41s-1.57,2-1.57,3,.78,2.5.63,3.44-1.88,2.51-1.88,2.51l2.19.78a6.57,6.57,0,0,0,.78-4.54c-.62-2.19-1.09-2.51-.15-3.45.42-.42,1-1,1.45-1.59a1,1,0,0,0,0,.35,4.07,4.07,0,0,0,.23.88,12.17,12.17,0,0,0,.46,3.29c.45,1.2,1.17,2.26,1,2.55s-.38.52-.22.71.5.44.63.35.38.21.65.06a1.29,1.29,0,0,1,.67-.12,12.37,12.37,0,0,0,1,4.51c1,2.4,1.85,4.34,2.1,5.09l-1.93,7.24.43,0a10.27,10.27,0,0,0-.39,3.36,9.69,9.69,0,0,0-3.71.42,14.63,14.63,0,0,1-7.37.73c-3.42-.81-3.21,3.32-5.22,3.27-3.3-.08-1.13-4.72-4-5.57a4.15,4.15,0,0,0-.48-.11c-4.34-.7-8.51-.87-12,2.31a8.25,8.25,0,0,0,.55-1.27,2.23,2.23,0,0,1,.54-1.24c.48-.68,2.23-3.5,2.82-4.33l.41,0,2.81-2.82.3-.17c.44-.28.3-.07,1-1.08a5.77,5.77,0,0,0,.4-4.87c-.68-1.26-4-6-4-6l-.14-.7s0-.94,0-1.36a9.65,9.65,0,0,0-.38-1.64s.26-1.87.4-2.57.75-4.19,1-6.14.56-6,.56-7.23-.35-3.7-.33-4.35a6.07,6.07,0,0,0-.18-1.48s-.47.14-.64-.16-.35-.45-.42-.73c0-.07,0-.1,0-.11a2,2,0,0,1-.57-.26c-.89-.5-1.38-.75-1.38-.75a8.09,8.09,0,0,1,.4-1.57,7.53,7.53,0,0,1,.72-1.12,9,9,0,0,1,1.19-.13,8.4,8.4,0,0,0,1.78-.2,1,1,0,0,0,.57-.87c0-.54,0-.67.12-.77s.35-.12.27-.35-.13-.25-.13-.25.52-.09.44-.36a4.57,4.57,0,0,1-.1-.82s1-.36.83-.81-.75-.92-.79-1.34a9,9,0,0,1,.46-2.08,4.33,4.33,0,0,0-.15-2.62c-.34-.62-.71-2.55-2.8-3.42a8.7,8.7,0,0,0-4.33-.79l-.61.12s0-.47-.16-.4-.11-.4-.31-.4l-.42,0a.85.85,0,0,0-.17-.14c.1-.23.23-.83-.6-1.27a4.58,4.58,0,0,0-3.36.07c0-1.27.07-3.07.15-4,.13-1.46.18-6-1.44-8.64a17,17,0,0,0-4.09-4.44,5.63,5.63,0,0,1,.57-2.14l.43-.56s1.88.13,2.18-.41a29.66,29.66,0,0,0,1.82-3.7,10.35,10.35,0,0,0,.14-2.62c0-.43.61-.86.91-1.47a9.7,9.7,0,0,0,.46-2.68,3.44,3.44,0,0,0,0-1.07s.68-.55.72-1.09a2.6,2.6,0,0,0-1.31-2.69c-1.5-1-3.16-2.29-5.46-2.29s-6.31.59-7,3.63-1.13,4.23-.56,6.25-.11,2.46.08,3.26.79.68.79.68a12.93,12.93,0,0,1-.74,2.54c-.31.44-.41.7-.46.68a4.84,4.84,0,0,0-2.48.3c-.69.48-2.7,1-3.13,1.29a17.66,17.66,0,0,0-3.27,4.05c-.52,1.24-.78,1.35-.78,1.35s-.81-.92-1.63-.81a1.68,1.68,0,0,0-1.31,1.52l.09.39s-3,.75-3.83,2a7.57,7.57,0,0,0-1,4.2c0,1.72-1.57,5-1.57,5.75v.78l.35,0a7.72,7.72,0,0,1,.52-2.29c.44-.91.61-1.39.61-1.39a10.07,10.07,0,0,1-.11,3.18,25.22,25.22,0,0,0-.2,4.83,10.44,10.44,0,0,0-.93,2.13c.07.35.2.42.2.42a1.81,1.81,0,0,0-.37.56c-.09.26,0,.48.19.24a2.15,2.15,0,0,0,.35-.74,6.9,6.9,0,0,1,1,3.81c-.07,2.22.06,5.48,1.65,5.9a22.79,22.79,0,0,0,3.53.54,16.67,16.67,0,0,1-.48,3.74c-.38.7-.44.83-.44.83l.5,0,.52-1.59a9.22,9.22,0,0,0,0,3,11,11,0,0,0,1.81,2.14c.3.22-.85,6.28-.24,7.94,0,.09,0,.17.08.25l-12.53,26.63a54.9,54.9,0,0,1,7.27-.84,47.36,47.36,0,0,0-.67,6.14,22.37,22.37,0,0,1-.83,4.75,10.77,10.77,0,0,1-.71,2.22c-3.16-.22-5.91,1.74-8.35,3.79-4.79,4-8.86,5.23-13.86,1.73-5.78-4.06-13.2-4.39-18.7-8.93-1.47-1.22-2.25.41-3.08,1.45-2.8,3.51-6.26,5.17-10.89,6.06s-8.15-.84-12.09-1.56c-6.18-1.12-12.72.75-18.62-2.59s-11.75-4.2-17.61-2.13c.35-1.75.8-4.28.88-4.57a14.9,14.9,0,0,0,.83-1.91c.12-.73,2.22-7.92,2.45-8.63s-.14-1.31.11-1.92l.06-.2.81.14-.44-1.37a1.43,1.43,0,0,1,.34-.55,2.22,2.22,0,0,0,.57-2c0-1-.44-1.52-.46-2.39s-.25-.67-.62-1.73-.79-9.94-.92-10.59-2-6.3-2-6.3a3.24,3.24,0,0,0,1-.46c.46-.32,0-.92-.54-3s.11-10.29.11-10.29a8.82,8.82,0,0,0,.65.85,58,58,0,0,0,7.65,6.71,7,7,0,0,1,3.49,4.77,7.87,7.87,0,0,0,2,3.12c.66.79.17.9.54,1.31s1,.34,1.46.57.93-.13,1.19,0,.71-.16.91-.13.59-.24.91-.58,0-1.47-.37-3-2.79-3.36-3.69-4.17-3.16-3.48-4.16-4.4a45.4,45.4,0,0,1-4.54-6.67c-1.07-1.84-2.86-3.67-3.38-4.48s-1.81-6.35-1.81-6.35.06-.36.22-.42-.06-.37-.14-1.46c0-.49,0-1,0-1.36a3.47,3.47,0,0,0,.32-.77c.23-.68.51-3.09.48-2.55s-.26,1.69-.26,1.69l.35-.89c.35-.88.4-3,.46-2.58a18.37,18.37,0,0,1-.18,2.23,10.06,10.06,0,0,0,.45-2.31c.21-1.78-.3-2.1-1.3-3.84s-1.64-5.75-1.92-9-1.34-5.12-3.17-5.72a8.2,8.2,0,0,0-7.27,1c-2.87,1.82-2.8,8.51-2.58,9.76s-.66,5-.77,5.33-.4.44-.47.88c0,.19-.08.49-.13.77-.75-.49-2.1-1.24-2.93-.9a2.63,2.63,0,0,0-1,.61c.25-.57.86-2.08.44-2.17a2,2,0,0,0-2.22.61,4.43,4.43,0,0,0-.53,2.39s-4.75,1.53-6.53,3.75a9.91,9.91,0,0,0-1.28,1.91l-.14.1a9.69,9.69,0,0,0-.49,2.59.84.84,0,0,0,.23.47l-.14-.08a14.42,14.42,0,0,0-.27,3.29l.18.8h.4a12.73,12.73,0,0,1-.17-1.36c0-.34.22-2.12.26-2.44a4.63,4.63,0,0,0,1,.4,1,1,0,0,0,.41,0c-.35,2.28-1.47,5.33-1.65,7.69-.36.87-.85,2.08-1,2.42a1.86,1.86,0,0,0,.63,1.91c-.08,1.48-.21,3.59-.27,4.3-.09,1.13,1.17,4,1.17,4h.9l-1-2.63a12.78,12.78,0,0,1-.4-5.5,1,1,0,0,0,.5-.37,31.54,31.54,0,0,0,2.76,6.82c1.53,2.61,4.77,2.87,5.21,2.48s-.55,3.53-.55,3.53l-1,1.72.95.29A38.64,38.64,0,0,1,1452,63.1c.07-.24.18-.69.32-1.31a16.64,16.64,0,0,1-.39,4.34,16,16,0,0,1-1.14,2.33,22.55,22.55,0,0,0-.94,3.14.39.39,0,0,0,.35.58,2.21,2.21,0,0,0,.15.93.64.64,0,0,0,.58.18,1.94,1.94,0,0,0,.34.81c.26.34.71-.11.71-.11l.49.21c.49.21.86-.16,1-.65s1.29-3.23,1.29-3.72a15.71,15.71,0,0,1,.36-2l1,2.88.8-.16s.44,1.64.5,2.19.37.39.58.94c0,.08.14.35.28.72l-5.77,12.49,8.06,1.4c-.44.38-1,.81-1.52,1.2-.86.71-2.06,2.07-4.44,4.66s-3.49,5.56-3.92,5.88a2.32,2.32,0,0,0-1.08,1.16c-.4.84-.59.78-1.27.81s-1,1.72-1.08,2a6.81,6.81,0,0,1-2.1,1.29,2.74,2.74,0,0,0-1.57,1c-.29.4,0,1.22.45,2a15.68,15.68,0,0,1-2.68-.91,24.84,24.84,0,0,0-5.82-1.28c-1.47-.27-2.62-.2-2.37,2,.22,1.92-.49,3.94-2.51,4.31a6.78,6.78,0,0,1-6.08-1.55c-4.77-4.56-8.29-4.76-13.37-.7a.64.64,0,0,1,.06-.35c.2-.47-.32-.61-.19-1.48s-.24-2.34-.14-3.14,1.28-6.48,1.47-6.77.12-.61.33-.82-.09-.55.14-.87a3.81,3.81,0,0,0,.22-2.12,17.12,17.12,0,0,0-.18-2.15c-.2-.6-1-2.64-1.26-3.34s-1.3-3.53-1.3-3.53.31-.09.66-.87a3.36,3.36,0,0,0,.14-2.35c-.24-.74-.72-2.36-.72-2.36l0-.49s-.42-1.32-.19-1.51a2.07,2.07,0,0,0,1-1.26c.16-.77,0-3.76.07-5.42s-.16-9.16-.17-9.61-.59-4.27-.71-4.63-1.28-1.33-1.18-1.51.3-.27.33-.34-.23-.22-.57-.29a1.54,1.54,0,0,1-.93-.9,10,10,0,0,1,.31-1.84,1.8,1.8,0,0,1,1-.37,7.1,7.1,0,0,0,1.68,0c.73-.12.77-.87.77-1.14a.86.86,0,0,1,.27-.52.39.39,0,0,0,.27-.15c.13-.15-.15-.61-.15-.61a.9.9,0,0,0,.4-.21c.21-.17.18-.28.08-.38a1.49,1.49,0,0,1-.14-.66c0-.18.27-.28.56-.5s.13-.44,0-.63a7.46,7.46,0,0,1-.61-.81,1.4,1.4,0,0,1,.06-.81c1-.21,1-.13,1.78-.29.92-.2,1.75-.78,1.49-1.31s-2.27-.59-2.27-.59.36-.48,0-2-2.29-2.74-3.18-3.39-3.22-1-5.37-.69l-.51.1a5.64,5.64,0,0,0-1.94.62,3.7,3.7,0,0,0-1.31,1.35,6.9,6.9,0,0,0-1.44,2.82c-.23.87.37,1.51.44,2.06h0a8.7,8.7,0,0,0,.12,2.25v0l-.07,1.66.29-.59-.14,1,.29-.38a2,2,0,0,0,.08.26c0,.12,0,.26,0,.38s.08.1.18,0a1,1,0,0,1,.07.15c1.64,3.09-3.18,2.84-3.18,2.84a4,4,0,0,1-.68.16c0-.49-.06-1.26-.67-1.22a1.42,1.42,0,0,0-1.2,1.48s0,0,0,0a5.44,5.44,0,0,0-1.86,1,8.09,8.09,0,0,0-1.42,3.77,30.15,30.15,0,0,0-.31,4.25,6.28,6.28,0,0,1-.8,1.6,13,13,0,0,0-1.38,1.76.65.65,0,0,0,0,.82c-.19.21-.39.45-.37.55s.33.18.55-.38l.24.16c.4.25.24-.63.24-.63s.15-.93-.15,5.1S1396,77.4,1396,77.4l.78,0a4.3,4.3,0,0,0-.14.78,19,19,0,0,1-.79,2.53,9.24,9.24,0,0,0-.3,2.08l.74,0s0-.88,0-1.25a20.23,20.23,0,0,1,.6-2.06s-.15,1.68-.17,2.15A6.33,6.33,0,0,0,1397,83s.77,0,.73-.1a11.35,11.35,0,0,1-.46-1.36,11.31,11.31,0,0,0-.1-2.22c-.16-.57.63-1.8.63-1.8a9,9,0,0,0,.13,2.17c.15.56.5,1.9.69,2.86-.22,1.63-.58,4.11-.76,5-.27,1.3-1.23,1.6-1.2,2.14s-1.37.5-1.1,1-.49.27-.31.91-2.32,2.35-2.46,3.12-2.08.66-2.53,2.26-1.58,2-2,2.93-1.44,1.42-1.68,2.25-1.51.74-.7,1.89a5.08,5.08,0,0,0-1.73,2.75c-.05.4,1,1.2,1.9,1.88a8.69,8.69,0,0,0-2,.82c-2.31,1.29-5.23,1.84-7.62,3.39a14.34,14.34,0,0,1-3,1.54,6.1,6.1,0,0,1-1.4-.78c-.37-.35-2.41-1.22-2.37-1.32a7.72,7.72,0,0,1,2-.16c.39.06,1.43.41,1.53-.18s-1.14-.72-1.85-.55-1.63.76-1.66.68a3.82,3.82,0,0,1-.29-2,36.34,36.34,0,0,1,1.06-7.3,82.61,82.61,0,0,0,2.07-10.19c.07-1.29.2-2.3.2-2.3s.82.1.89-.18a2.78,2.78,0,0,0,.07-.58l4.17-.56-1.43-15.72c0-1.64,0-3.53,0-4.4,0-1.32-.66-3-.55-3.89s-1.1-5-1-5.19a6.72,6.72,0,0,1,.23-.67c.12-.27-.06-.29-.25-.73a1,1,0,0,1,.2-1.12c.34-.46.72-.44.77-1.37a8.61,8.61,0,0,1,.31-2.85,4.53,4.53,0,0,0,.06-3.3,19.86,19.86,0,0,1-.52-5.43c.1-1.56-.16-6.2-.16-6.2l1.41,4.27,1.07-.5-2-5.7,4.25,2.1a5,5,0,0,0,4.46.1c1.26-.66,1.17-2.3,1.12-3.23s-.42-3.48-.7-4.89a35.17,35.17,0,0,0-1.47-4.66c-.63-1.76-2-2.21-2.33-2.7a6.55,6.55,0,0,1-.89-2.2.77.77,0,0,0-.91-.61s0-.25.08-1.26a6.74,6.74,0,0,0-.55-2.71c-.22-.53-1.06-3-1.38-3.66s-2.17-.45-2.17-.45V11.3a3.49,3.49,0,0,1,.2-.46l.1-.12a1.45,1.45,0,0,0,.54-.58,5.25,5.25,0,0,0,.37-1.8c0-.12-.89,0-.89,0a13.94,13.94,0,0,0-.1-2.41,10.16,10.16,0,0,0-.7-2.4l.38,0-.65-.67.5-.18-.66-.29.17-.22-.22-.17.22-.28-.64-.05a4.53,4.53,0,0,1-.4-.27l.1-.1-1-.09.74-.38s-.83-.09-1-.14l-.87-.23.3-.24-.59,0c-.2,0-1.61.07-1.61.07l.08-.18-.67.11V0a10.18,10.18,0,0,1-1,.2,7.87,7.87,0,0,0-3.08,1.14c-1.71.93-2.27,2.71-2.6,4.26s1.21,7.12,1.29,7.48.29.59.23.57-.2,1.71-.2,1.71a1.4,1.4,0,0,0-2,.74c-.81,1.45-.91,1.18-1.11,1.41s-3.16,1.28-4.67,2.22a4.39,4.39,0,0,0-1.85,2.66s-1-1.65-2.59-.87-1.78,1.71-1.78,1.71.07-.34-2.56,1.24-2.48,7-2.48,8.81,1.27,9.58,1.1,10.49,1.59,4.47,1.59,4.91a7.06,7.06,0,0,0-.34,3.83c.5,2,4.81,1.41,4.81,1.41s-.37,1-.85,2.36a7,7,0,0,0-.09,3.16l.6,0s-.3-.2-.27-1.78a11.63,11.63,0,0,1,1.08-3.77l1,3.4-.09,2.28a4.72,4.72,0,0,0-.34,1.15c-.1.64.52.57.5,1a28.41,28.41,0,0,0,.81,4c.29,1.06,1.28,3.67,2.17,6.11l-1.9,20.13.78-.1c-1,2.21-2,4.5-2.36,5.19-.64,1.36-2.36,5.42-2.36,5.42a4.93,4.93,0,0,0-1.37.28c-.24.19-2.44,2.81-2.44,2.81a4.11,4.11,0,0,1-.93.47c-.57.25-.49,1.07-.33,1.66a10.78,10.78,0,0,1-1.89-1.54c-.14-.28-1-2.25-1.32-3.18s-.85-2.06-1.42-3.43a47.61,47.61,0,0,1-1.18-5.53l1,0c1.07,0,0-3.24-1.83-7.36.2-.39.48-.92.69-1.28.36-.6-.33-1.37-.44-1.7a3.18,3.18,0,0,1,.3-1.67c.25-.63,0-.54,0-.93s-.66-2.08-1-4.05a46.8,46.8,0,0,1-.43-5.37l.35-.09a3.09,3.09,0,0,0,.74-.3l-.19.55c-.19.55-.25.69,0,.85s1.45-.44,2.27-2.55-.88-4-2.16-6.35a26.69,26.69,0,0,1-2.06-6.28,11.25,11.25,0,0,1,.52-2.16,55.85,55.85,0,0,0,1-8.06,69.69,69.69,0,0,0-.28-7.72c-.13-1.76.47-2.66.47-5.54a8,8,0,0,0-1.7-4.68,10,10,0,0,1,0-2.06c.11-.54.36-.54.11-.63s-2.49-1.83-2.49-1.83a9.26,9.26,0,0,1,.41-2.08c.27-.58,1.12-.74,1.67-1s2-.38,2.36-.63.68-1.07.54-1.23.25-.63.25-.63l.19-.22c.19-.22,0-1,0-1l.13-.08c.14-.08.11-.38,0-.6a2.75,2.75,0,0,1,.08-.91l.31-.22c.3-.22.24,0,.32-.44s-.32-.76-.63-1a3.36,3.36,0,0,1-.32-1.92,4.23,4.23,0,0,0-.44-1.64,4.93,4.93,0,0,1-.25-1.29c0-.11.22-.16.52-.46s.63-.74.6-.93.31-.52-.3-.85-.19-.33-.41-.36a2.24,2.24,0,0,1-.71-.14c-.22-.11-.41-.43-.8-.46a24.68,24.68,0,0,1-3.42-.58,7.87,7.87,0,0,0-1.29-.33,8.91,8.91,0,0,0-2.33-.11c-.76.09-3,2.11-4.13,3.84s-.85,4.93-.85,5.48a27.68,27.68,0,0,0,1,3.34,7.71,7.71,0,0,0,.22,1.07c.13.27.27-.16.33.19s.16,1.4.16,1.4l-1,.08c-1,.08-1.58,1.26-3,2.82s-5,8.83-5.84,9.84a8,8,0,0,1-2.22,2,6.5,6.5,0,0,1-1.26-1.17c-.52-.66-1.23-.91-1.7-.36s-1.15,1.15-.43,1.86,1.69,2,1.45,2.69-.22,1-1.67,2.3-.63,1.75-1.87,2.27-2.11.91-2.63,2.2.09,6.05-.08,7.67.77,4.46,1,6.3a4.43,4.43,0,0,0,3.34,3.45,9.75,9.75,0,0,0,3.84.6c1.31-.19,3.53-2.76,3.53-2.76.44-.14,1.1,1.78,1.07,2.41s.66,3.06.71,3.69a22.25,22.25,0,0,0,.83,2.11c0,.16-.15,1.34-.25,2.79l-8,23.07,3.89-.14a30.48,30.48,0,0,0-.61,5.22c-.06,2.71-.47,5.45-.3,6.35s.11,1.15-.77,1.59,0,2.08,0,2.08a2.87,2.87,0,0,0-.63.63c-.35.47-.27.72-.41,1.32a2.32,2.32,0,0,1-.24.69,5.87,5.87,0,0,1-3.35.12,23.7,23.7,0,0,0-12.75.17c-1.67.45-5,1.13-5.18-1.18-.24-3.37-1.23-3-3.53-2.17a3.82,3.82,0,0,1-2.82-.59c-3.41-2.08-6.69-3.54-10,.15-.73.81-1.88.3-2.86.12-5.81-1-11.17-4.34-17.46-3.19-2.72.5-6.48-.77-8.21.22-4.3,2.49-7.56,1.57-11.2-.6-.66-.4-1.46-.89-2.28-.11-.08,1.52,1.52,1.58,2.14,2.47,1.19,1.69,2.44,4.06,1.11,5.47-2,2.11-2.8-1.1-4.08-2-3.16-2.12-6.15-3.88-8.63.77a1.57,1.57,0,0,1-2,1c-4-1-7.55-5.47-12.23-1.64-.14.12-1.08-.31-1.18-.63-1.38-4.62-4.82-2-7-1.58-6.82,1.27-13.5,2.22-20.16-.57-.36-.15-1.12-.12-1.27.11-4.9,7.33-12.65,6.27-17.54,2.6-4.2-3.16-7.85-1-11.45-2.53-.85-1.49,1.68-2.53.24-4.61-1.69,2-3.92,1.32-6.15,1.1a1.32,1.32,0,0,0-1.57,1.47c0,.3.71.84,1,.77,2.06-.51,3.56-1,2.82,2.36-.71,3.23-2,2.75-4.12,1.64a2.13,2.13,0,0,0-3,.91c-.64,1-1.27,2.21-2.7,1.44-1-.54-1-1.72-.72-2.69.43-1.86-.11-3.09-2.11-2.92-1.71.14-4.07-2.33-5.06.92a5,5,0,0,1-.94,1.77,1.55,1.55,0,0,1,0-.21,35.28,35.28,0,0,0,.74-5.93,30.55,30.55,0,0,1,1.14-7.62,70.24,70.24,0,0,0,1.68-7.17c.24-1.23.89-1.78.59-4a99.46,99.46,0,0,0-2.32-11,56.21,56.21,0,0,0-2-6.28s.69-2.32.35-3.36a28.16,28.16,0,0,1-.85-5.59c0-1.58.1-3.46.1-3.46l.89.25s.05.93.35,1,.84-.34,1.24,0,.84.55,1,.45a2.94,2.94,0,0,1,.85-.1l.64.79s.39-2.27.64-3.16a6.24,6.24,0,0,0-.59-3.66,12.16,12.16,0,0,1-.84-2.82s.94,0,.64-.59a6.81,6.81,0,0,1-.84-2.72c0-.94.94-1.44.64-2.18a21.52,21.52,0,0,1-1.23-3.91,16.48,16.48,0,0,0-.7-3.36,7.15,7.15,0,0,1-.49-1.78l.79.05s.45-1.73,0-2.37a13.76,13.76,0,0,1-1.83-3,5.54,5.54,0,0,0-1.48-2.27,15.44,15.44,0,0,0-2.43-.9l-.49-1.08,0-.89s.54-.89.59-1,.2-.79.2-.79,1.24.19,1.29-.45-1.14-2.92-.84-3.26a6.59,6.59,0,0,1,.69-.69l-.15-.84s.69-.5.54-1a4.23,4.23,0,0,1,0-2c.2-.5.85-1,.3-2.13a2.44,2.44,0,0,0-1.63-1.28,3,3,0,0,0-2.28-1.19,11,11,0,0,1-3.41-.3,6.64,6.64,0,0,0-4.25-.14,8.54,8.54,0,0,0-3.91,3.26c-.54.94-1.18,2.17-1.63,2.32a2.6,2.6,0,0,1-1.23-.1l.59.5s-.15.59-.55.64-.88.15-.88.15l.34.4a1.59,1.59,0,0,0-.74,1.68c.15,1.23.94,2.47,1.53,2.62s1.29.44,1.14.89a1.46,1.46,0,0,0,.15,1s-.65,1.33-1,1.43-.74.2-.45.69.75,1,.7,1.34-.1,1-.1,1-2.23,2.52-2.72,3.06a12.44,12.44,0,0,0-1.93,3.86c-.45,1.53-.54,3.76-1.29,5.14a18.22,18.22,0,0,0-1.38,7.22c.25,1.54.35,2.57,1.68,3.07a7.59,7.59,0,0,0,2.77.39v2.82a7.67,7.67,0,0,0-2-.64,5.87,5.87,0,0,1-1.68,0,2.37,2.37,0,0,0-.84-.15s.25-1.33-.3-1.43-.89.84-1.38.94a14.16,14.16,0,0,1-1.49.15,7,7,0,0,1,.6-2.28,4.92,4.92,0,0,0,.49-3.76c-.44-1.58-1.68-5.29-1.73-6a9.38,9.38,0,0,0-1.14-3.61,7.44,7.44,0,0,0-1.23-1.43l-.4.05V32.55s1.61.68,2.2.16.49-1.34.74-1.41.64-.11.67-.41a1.19,1.19,0,0,0-.07-.56l.37-.14.15-1s1.07.22,1.07-.3a8.66,8.66,0,0,0-.7-2s.15-1,.37-1.07a.77.77,0,0,0,.44-.75c0-.37,0-2.22,0-2.22a.71.71,0,0,0,.66-.74,4.26,4.26,0,0,0-1.18-2.38c-.37-.18-.93-.07-1-.52a1.24,1.24,0,0,0-.89-.92c-.41-.08-1.08-.3-1.19-.67s-1.37-.56-1.37-.56l-.18-.66s-7-.34-10,.77-3.52,3-3.37,4.34a27.77,27.77,0,0,0,.44,3.82,4.57,4.57,0,0,1,.48,2.12,4.07,4.07,0,0,0,1.19,2.56,2.32,2.32,0,0,0,1.71.81l0,.6A18.32,18.32,0,0,0,1084,36.6a20,20,0,0,0-1.3,6,26.85,26.85,0,0,1-1.18,4.93c-.37,1.19-.93,4.16-.93,4.16a13.83,13.83,0,0,1-1,1.76c-.49.7-1.19,1.78-1.19,1.78l-.49-.49a23.24,23.24,0,0,0-.05-4.55,19.75,19.75,0,0,1-.49-5.14c.09-1.63-.1-9.15-.65-10.88s-1.08-6.48-1.68-7.62-1.53-2.27-1.58-2.91-.1-2-.1-2l-.69-.35.44-1.48a1,1,0,0,0,1.09-.69c.25-.84.64-.55,1-1.73a19.64,19.64,0,0,1,1.19-3.12,10.48,10.48,0,0,0,.49-2.92s1.38,0,1.38-1a1.12,1.12,0,0,0-.93-1.13s-.2-.85-.3-1.09-.35-.94-.35-.94a1.73,1.73,0,0,0,.25-1.88c-.54-1-1.39-2.23-1.83-3s-2.62-1.83-4.5-1.88-5.09.79-6,2.08A21.72,21.72,0,0,0,1063,5.94a2.13,2.13,0,0,0-.24,2c.39.84,1.14,2.62.94,3.26s-.5,2.13-.5,2.13l-.64,0-.15.4s-1.63,1.08-2.77,1.78a9,9,0,0,0-2.57,1.78c-.79.89-1.53,1.78-1.53,1.78s-2.28-1.39-3.12-.84a2.43,2.43,0,0,0-.84,2.42,6.75,6.75,0,0,1-.44,2.77c-.35.89-.84,3.66-.25,4.84a5.06,5.06,0,0,0,1.63,2c.3.15.89.4.89.4a6,6,0,0,1-.15,2.77,32.49,32.49,0,0,0-1.53,5.19,28.91,28.91,0,0,1-.54,4.65,26.5,26.5,0,0,0-.94,5.63c0,1.64.59,3.47.29,4.16s-1,1.33-.74,2.47a11.14,11.14,0,0,0,.6,1.93s-.7,2.62-.15,4.1a9.69,9.69,0,0,1,.59,2.58l.45,0s.24.74.39,1.08a2.45,2.45,0,0,0,.55.7s-1.88,5.19-1.88,6.62a13.07,13.07,0,0,1-.75,4.21c-.44,1.28-1,2-1,2.32a5.61,5.61,0,0,1-.6,2,4.45,4.45,0,0,0-.69,1.33,6.36,6.36,0,0,1-.2.89,2.28,2.28,0,0,0-1.33.94,67.77,67.77,0,0,0-4,6.53c-.94,2.08-2.52,5.59-3.36,6.53s-1.78,5.44-1.78,5.44-1.54-2.28-2.08-3.17S1033.2,97,1033.2,97A35.89,35.89,0,0,1,1034,91c.64-2.38,2.22-6.33,1.78-8.66a74.87,74.87,0,0,0-3-10.13c-1.24-3.27-2.18-6.38-2.18-6.38s.75,0,.8-.64a3.27,3.27,0,0,1,.94-1.93c.49-.45,1.43-.89,1.58-2.18a76.17,76.17,0,0,0-.35-10.78c-.39-2.67-.84-5.44-1-6.72a28.54,28.54,0,0,0-.69-3.27s.54.1.79-.2a3.66,3.66,0,0,0,.35-1.33l1.38-.25,1-1s2.42,3,2.77,4.75,2,4.45,3.71,4.89,3.06.55,3.71-1.18-.3-3.81-1.39-5.34-3.51-4.31-4-5.2-1.83-1.58-3-2.47-3-3-3.36-3.26a9.63,9.63,0,0,0-1.29-.64s0-2.43-.19-3.37-.25-3.41-.25-3.41,1.83.25,2-.25.14-2.57.64-2.81,1.19-.2,1.63-.6a5.7,5.7,0,0,0,.94-1.53,1.5,1.5,0,0,0,1.14-1.24,8.47,8.47,0,0,0-.45-4.69c-.59-1.09-2.07-2.23-2.37-3a4.09,4.09,0,0,0-3.51-2c-1.73.05-4.06.45-5.19,1.48a11.4,11.4,0,0,0-2,2.48,5.66,5.66,0,0,0-.45.94s-4-.15-5.34,0a3.53,3.53,0,0,0-3,1.68,5.18,5.18,0,0,0-1.44,2.42c-.1.54-.3,1.58-.3,1.58s-1.48-.74-2,.1-.4,2.57-.74,3.07a11.28,11.28,0,0,1-1.78,2.32c-.94.84-4.5,3.61-4.95,5.44a8.86,8.86,0,0,0,.1,5,6.65,6.65,0,0,0,1.14,1.63,35.9,35.9,0,0,0-1.14,5.73c-.2,2.48-1.48,12.47-1.48,15.53s-.35,6.88,0,9.94.64,4.35.94,4.6a8.43,8.43,0,0,0,2.42.15s-.69,3.56-1.14,5.44a19.79,19.79,0,0,1-1.78,4.6,6,6,0,0,0-.54,2,6.51,6.51,0,0,0,0,1,13.86,13.86,0,0,1-1.24,1.24,6.48,6.48,0,0,0-1.83,3.21c-.49,1.83-2.62,8.16-3.41,10.19a81.08,81.08,0,0,0-3,8c-2.42-.81-5.18-2.64-6.33,1.29-.93,3.16-2.07,3.88-4.79,2.81-1.51-.58-2.46.33-3.68.82-2.13.86-4.55,2.2-6.58,1.83-2.75-.5-5.76-5-6.76,1.6,0,.13-.93.25-1.39.18-7.56-1.31-15.45.33-22.69-4.11-8.12-5-17-5.81-25.95-1.4-2,1-3.93.31-6.08-.71a57.67,57.67,0,0,0-20.42-5.56c-2.1-.17-4,.84-3.5,3.09.57,2.8-.63,4.09-2.85,4.93-2.66,1-4.86.13-6.7-1.93s-2.85-6-6.11-1.16c-.82,1.21-3.14.53-4.78.13l-6.29-1.52c-1.71,1-3.47,2.21-5.42,2.2-8.36,0-16.61,2.31-25,1.16a18,18,0,0,0-7.61.63c-3.57-.66-5.21-4.51-8.85-5.21-2.86-.55-6.17,0-5.3,2.87,1.33,4.39-1.8,4.24-3.73,5.42-2.35,1.42-5.29,4.27-7.5,2.83-5.47-3.57-11.82-2.92-17.55-4.91A20.08,20.08,0,0,0,769,110c-.85.13-1.84,4.38-1.18,7.12.48,2-1.37,1.66-2.3,1.23a16.7,16.7,0,0,0-4.31-1.25,16.36,16.36,0,0,0,2.42-.62c.55-.14,1.19-.64,1-1s-2.92-.54-3.71-1.08-3.76-2.47-4.35-3.46-1-3.52-1.33-5a38.34,38.34,0,0,1-.7-5.29c-.09-1.44-.44-4.55-.44-4.55s4.15-3.22,5.54-4,1.92-.93,2.57-1.73,2.12-1.43,2.32-2.81a17,17,0,0,0-.29-5.15c-.35-1.68-1.44-8.06-2-9.79a38.55,38.55,0,0,1-.94-3.76s.54-2.86,0-3.8a1.75,1.75,0,0,0-1.68-.8s.19-3.41.94-4.64,2.91-4.5,3-7-.1-6.18,0-7.46,0-3.91.2-4.45a9.07,9.07,0,0,0,.45-2.87,5.05,5.05,0,0,0-.94-1.14l0-1.38.84-.94.59.14s.31,3.17.24,4a4,4,0,0,1-.34,1.6,3.35,3.35,0,0,1-.52.66l.63-.11.3-.37s0,.82,0,1.49a6.75,6.75,0,0,1-.15,2,9.08,9.08,0,0,1-.59,1.41,2.75,2.75,0,0,0,1.11-1.48,16.54,16.54,0,0,0,.23-2.67,5.64,5.64,0,0,1,.48-1.26s-.08,1-.11,1.59a11.27,11.27,0,0,1-.15,1.74c-.11.41-.26,1.12-.26,1.12a7.17,7.17,0,0,0,1-2,8.83,8.83,0,0,0,.44-3.3c-.14-1.48-.37-3-.33-3.6s.11-1.22.11-1.22a6.4,6.4,0,0,1,.85,1.44c.15.52.3,1.45.3,1.45a10.68,10.68,0,0,0,0-3.15,5.87,5.87,0,0,0-1-1.6,2.17,2.17,0,0,1,.59-.63,12.55,12.55,0,0,0,2.71-2.19,5,5,0,0,0,.89-4.26,8.87,8.87,0,0,0-2.19-4.19c-.52-.48-.78-1.78-1.41-2.08s-1.48-1.3-2.89-1.37-4.93,1.67-6,2.67l-2,1.82a3,3,0,0,0-1.81.33A3.51,3.51,0,0,0,753.6,24a2.6,2.6,0,0,1,1.34-1.41,2.15,2.15,0,0,1,1.3-.19s-.67.82-1,.89a1.48,1.48,0,0,1-.63,0L754.57,25a4.72,4.72,0,0,0-2.19.59c-.59.52-1,1.23-1.59,1.34a4.77,4.77,0,0,0-2,.74c-.66.48-1.55,1.3-1.55,1.3s.14-2.26-.26-2.6a4,4,0,0,1-1.19-1.56c-.15-.51-.19-1.33-.56-1.44s-.44-.52-.44-1a1.54,1.54,0,0,1,.48-.89s.41.49.3.67-.34.71-.34.71l.82-.6s.33.6.11.93a6.58,6.58,0,0,0-.37.63,1.27,1.27,0,0,0,1-.22c.41-.34.52-.74.89-.71s1.78,0,2-.26a3.59,3.59,0,0,0,.23-1.85,2.63,2.63,0,0,1,.74-1.85c.52-.6,2.33-2.68,2.26-4.46s-1.33-3.59-2.37-4.89a7.47,7.47,0,0,0-5.34-2.3c-2.08,0-4.38,1.71-5.64,3s-1.71,1.67-2,3.08-.19,2.26-.63,2.74a3.71,3.71,0,0,0-.89,1.38,5,5,0,0,0-.12,1.11s-2.81,0-3.41-.11a5.58,5.58,0,0,0-1.56.15,3.69,3.69,0,0,0-.7,1.4,7.59,7.59,0,0,1-1.37,2.34,4.59,4.59,0,0,0-.82,2.78c0,1.38-.26,4.3,0,4.71a8.67,8.67,0,0,0,1.33,1.15l.65.35a18.13,18.13,0,0,0-.4,5.09,58.52,58.52,0,0,1,.5,9.45c-.2,2.27-.4,3-.8,3.46A10.12,10.12,0,0,0,727.84,53c-.44,1.73-1.28,3.61-1.48,4.75s-.35,2.72-.35,2.72l1,.24a9.69,9.69,0,0,0,.74,3.91c.79,1.48,2,1.93,2,3.36s-.1,7.17,0,9a.49.49,0,0,0,0,.12l-8.42,18.77,3.75-.31a42.47,42.47,0,0,0-1.92,5.6,51.68,51.68,0,0,1-2.17,7.37,9.05,9.05,0,0,0-.75,2.87,4,4,0,0,1-.5,1.22,5,5,0,0,1-2.25-1.67c-1.59-1.91-3.84-2-6.58-1.6s-5.76,2.15-8.65,1.41c-6.19-1.59-12.8-1.49-18.57-4.93a4.06,4.06,0,0,0-6,1.7c-2.3,4.07-3.91,1.94-5.44-.81-1.28,2.29-2.38,6.3-4.68.76-.58-1.41-1.41-1.82-2.69-1.17-2.17,1.13-3.36,0-4.56-1.65a2.11,2.11,0,0,0-3.17-.68c1.51,2.32,5.37,4.39,3.59,7.2-2,3.09-5.81,3-9.75,3-5,0-9.58.59-13.21-3.64a1.13,1.13,0,0,0-.93-.29c-5.6,1.43-12-1-17,3.52-.58.52-1.56,1.2-2.13,1-3.21-1-5.81-2.14-9.81-.91-4.28,1.32-9.37,1.56-14.15,1.58-4.44,0-8.43,4.36-12.84,1.94l-.4-.2a11.62,11.62,0,0,1,2.62.2,8.37,8.37,0,0,0,3.36.15c1.21-.29,2.42-.65,2.67-2s-1.19-1.79-1.71-1.82a14.11,14.11,0,0,1-2.49-1c-.79-.32-1.64-.32-1.91-.79a3.34,3.34,0,0,0-1.08-.89.88.88,0,0,1-.24-.85c.15-.47-.36-.56-.32-1.41s-.43-2.25-.41-3,.67-6.37.82-6.66.07-.61.25-.83-.14-.51.06-.85a3.65,3.65,0,0,0,0-2.07,16,16,0,0,0-.36-2.06c-.25-.56-1.17-2.46-1.5-3.11s-1.58-3.3-1.58-3.3.29-.11.56-.89a3.21,3.21,0,0,0-.07-2.29c-.29-.7-.9-2.22-.9-2.22L578.4,81s-.52-1.24-.31-1.44a2,2,0,0,0,.82-1.3c.09-.77-.34-3.64-.41-5.25s-1-8.83-1-9.27-1-4.06-1.09-4.4-1.35-1.18-1.27-1.35.27-.3.29-.37-.25-.18-.59-.23a1.54,1.54,0,0,1-1-.78,9.44,9.44,0,0,1,.14-1.81,1.76,1.76,0,0,1,.92-.45,6.26,6.26,0,0,0,1.63-.15c.69-.18.66-.91.63-1.16a.86.86,0,0,1,.23-.53.36.36,0,0,0,.24-.17c.11-.15-.2-.57-.2-.57a.82.82,0,0,0,.37-.24c.19-.19.15-.29,0-.38a1.2,1.2,0,0,1-.2-.62c0-.17.24-.3.5-.53s.08-.44-.07-.61a8.45,8.45,0,0,1-.65-.72,1.32,1.32,0,0,1,0-.79c.93-.29,1-.23,1.69-.45.87-.27,1.62-.9,1.33-1.39s-2.25-.37-2.25-.37.31-.5-.19-2-2.47-2.45-3.37-3-3.21-.7-5.26-.19l-.48.14a5.26,5.26,0,0,0-1.82.77,3.66,3.66,0,0,0-1.15,1.42,6.75,6.75,0,0,0-1.14,2.85c-.14.86.49,1.43.61,1.95h0a8.39,8.39,0,0,0,.31,2.16v0l.08,1.61.22-.59,0,.95.24-.4c0,.09.07.17.1.25V52c0,.14.08.09.18,0a.64.64,0,0,0,.08.14c1.85,2.84-2.82,3-2.82,3a4.74,4.74,0,0,1-.65.22c0-.47-.17-1.21-.76-1.12a1.38,1.38,0,0,0-1,1.53v0a5.54,5.54,0,0,0-1.71,1.09,7.92,7.92,0,0,0-1,3.78,28.83,28.83,0,0,0,.08,4.13,6,6,0,0,1-.64,1.61,11.6,11.6,0,0,0-1.17,1.82.65.65,0,0,0,.09.79c-.16.22-.33.47-.31.57s.35.14.51-.42l.25.14c.4.2.16-.64.16-.64s.07-.91.31,4.94,6.54,6.68,6.54,6.68l.75,0a4.27,4.27,0,0,0-.07.76,16.29,16.29,0,0,1-.53,2.51,9,9,0,0,0-.11,2l.72-.09s-.12-.85-.12-1.21.4-2,.4-2,0,1.64,0,2.09a5.32,5.32,0,0,0,.34,1.25s.73-.07.69-.15a10.41,10.41,0,0,1-.56-1.28,11.36,11.36,0,0,0-.29-2.13c-.21-.54.44-1.8.44-1.8a8.93,8.93,0,0,0,.32,2.09c.19.52.65,1.79.92,2.7-.08,1.59-.2,4-.3,4.86-.14,1.27-1,1.65-1,2.18s-1.28.6-1,1.05-.46.3-.23.9-2,2.48-2.09,3.23-2,.82-2.25,2.4-1.35,2.1-1.65,3-1.27,1.5-1.42,2.32-1.4.85-.52,1.89a5,5,0,0,0-1.42,2.8c0,.65,2.92,2.08,3.3,2.51a13,13,0,0,0,3.32,2.62c1,.31,2.6.49,3-.5s-.25-1.57-.79-1.93a2.48,2.48,0,0,1-1.17-1.5c-.27-.83-.7-2.69-.7-2.69s-.07-.42-.18-.92.4-.24.67-.78.72-.94.65-1.55.38-.6.54-.74a1.49,1.49,0,0,0,.53-.87c0-.36.27-.57.81-1.19s1.7-2.56,2.12-3.1a14.22,14.22,0,0,1,2.22-1.69,6.23,6.23,0,0,0,2-2.49A19.88,19.88,0,0,0,573,91.64a9.31,9.31,0,0,0,.58,1,15.21,15.21,0,0,0,1.51,2.48c.6.52.6,1.12.68,2s-.15.75-.45,1.5a2.76,2.76,0,0,0,.08,1.73,5.72,5.72,0,0,1,.38,1.43,31.37,31.37,0,0,0,.38,5.18c.22.52-1,1-.82,1.57s-1,1.35.15,2.17-1.65,1.28.15,1.66l.75.15a4.81,4.81,0,0,1,0,2,2.68,2.68,0,0,0-.15,1,20.17,20.17,0,0,1-4.72-2c-2.36-1.51-4.49-1.13-6,1.26a5.66,5.66,0,0,1-6.29,2.91c-1.36-.22-3.4,0-4.25.93-5.43,5.69-12.68,2.35-18.87,4.08a1.84,1.84,0,0,1-2.37-1.34c-.95-4.87-4.93-4.72-8.17-4.29-2.87.37-4.68-.53-6.82-2s-4.94-5.83-7.12.23c-.08.24-.92.35-1.37.29a61.53,61.53,0,0,0-7.06-.13.75.75,0,0,0,.15-.8c-.34-1-1.13-2.6-2.34-3s-2.26-.51-3.11-.79-3-1-3.16-1.69.09-.57-.22-1.07,1.58-5.93,2.45-7.4c.67-1.12,2-3.69,2.54-4.84h16.64l-3.46,8.76-.4.37s-1.35-.2-1.44.37a1.41,1.41,0,0,0,.51,1.21c.23.2-.62,1.07-.79,1.1s-.34.93.37,1.33,1.38.53,1.49.37a3.52,3.52,0,0,0,.12-1.22c0-.39,0-1,0-1a4.54,4.54,0,0,0,1.46-.08c.28-.17.23-.79-.08-1.1s-.57-.62-.57-.62l.2-.4,0-.11,3.55-9h3.76c.52,1.79,1.72,5.47,3.25,7.1,2.06,2.2,7.69,8.27,8,9.25s.53,5.73,1.61,6,11.11-.17,12-.36,4.21-2.29,4.43-4-.51-2.94-2.09-2.74-5.53.59-7.67-.22a12.09,12.09,0,0,1-5.93-5.51c-1-2.23-3.68-8.21-4.24-9.55h.28l-.61-1c-.25-.91-.36-1.73-.53-1.8s.28-.65,0-.85,0-.67-.22-.9.45-.7.16-1.18-.11-2-.22-2.12a1.56,1.56,0,0,1-.2-.51c0-.14.2-.5-.08-1a4.53,4.53,0,0,1-.71-1.22,1.12,1.12,0,0,0-.48-.87,9.09,9.09,0,0,1-1.1-1.36c-.33-.48-.9-1.72-1.13-2a28.88,28.88,0,0,1-.87-3.3l8.89-22.71.28.11a31.89,31.89,0,0,1,1.38-3l.42-.65s1.33.09,1.5-.22a.9.9,0,0,0,.06-.65s.36-.59.25-.82l-.11-.23s.45-.45.39-.84l0-.4s.84-.78.73-1.44l-.11-.64s.11-1-.2-1.05a9.35,9.35,0,0,0-1.69.2l-.48,0a5,5,0,0,0-2.09,0,10.2,10.2,0,0,0-1.75,1.3c-.43.34-.6.67-1.1.73s-1.44.11-1.44.11l0,.31s-2.65-.33-3.81-.62a24,24,0,0,1-3.07-1.13L522,46s.18-3.4.2-5.86c.43.1.73.15.73.15a11.29,11.29,0,0,1-.65-1.13l-.09-.19c0-.24,0-.46,0-.64a10.53,10.53,0,0,0-1.82-4.62c.35.42.76.93,1.13,1.41a8.72,8.72,0,0,1,1.13,3.23,5.08,5.08,0,0,0,.16-2.26,12.05,12.05,0,0,0-1.29-2.59,10.08,10.08,0,0,0,1.94,1.37c.65.25,1.7.73,1.7.73l-.89-.65c-.89-.64-2.67-2.9-3.88-4-.79-.74-1.57-3.48-2-5.31.43.09,1,.2,1.43.27a4.5,4.5,0,0,0,2.28-.19,2.62,2.62,0,0,0,.79-1.75,2.17,2.17,0,0,1,.12-.68s.3-.4.5-.45a.36.36,0,0,0,.26-.4v-.2s.56,0,.59-.39-.29-.53.27-.93.85-.18,1-.52.06-.53-.25-1.27a4,4,0,0,1-.19-2,5.27,5.27,0,0,1,.59-1.53h0v0c.06-.12.11-.24.17-.37l0,.26.06-.44,0-.07.15.51.08-.52.24.4,0-.36a11.25,11.25,0,0,0,0-3.15,6.15,6.15,0,0,0-.5-1.19c-.12-.33-.26-.66-.41-1a9.39,9.39,0,0,0-1.41-2l-.35-.51s0,.07,0,.18a8.45,8.45,0,0,0-4.65-2.65l-.32,0a3.63,3.63,0,0,0-.48-.32c-1-.48-3.39-.16-4.85-.08a1,1,0,0,0-.38.14,2.52,2.52,0,0,0-2.08.55A9.84,9.84,0,0,0,507.24,13c-.17,1.91-.48,6.9-1.53,8.35S503,27.73,503,27.73s1.05-.24,0,.81S501,34.92,501,34.92l.89-1.85-.24,1.45a6.32,6.32,0,0,1-1.94,2.91l1.45-.65c.22-.1.45-.21.67-.33A21.39,21.39,0,0,0,501.1,42c-.13,5.08-.47,9.09-1,10.78a37.74,37.74,0,0,1-3,5.81c-.51.79-.68,1.1-.51,1.38a1.35,1.35,0,0,0,.39.43s-.47,3.72.43,5a9.31,9.31,0,0,1,1.18,2.17,16.67,16.67,0,0,1,.23,2.94c0,1.77-.37,3.06-.42,5a20.69,20.69,0,0,1-1.16,6.4,14.13,14.13,0,0,1-1.47,3C495,86,493.6,88.37,493,89s-1.07,1-1,1.1l.26.29a51.52,51.52,0,0,0-2.06,5.89c-.15,1.16-.26,2.83-.26,2.83l-17,13.7c-4.78,1.17-9.5,2.66-14.24,4a2.6,2.6,0,0,0-1.52,1.2c-2.14,5-5.82,2.42-7.58.62l-.66-.69,1.19-.51s2.76.52,3.36-.51.51-2.1-1-2.75a5.52,5.52,0,0,1-2.33-1.82,2.92,2.92,0,0,0-.7-.51,52,52,0,0,1-.51-6c.05-2,.09-2.89.09-2.89a15.53,15.53,0,0,1,1.08-2.66,28.85,28.85,0,0,0,1.95-3.08,5.61,5.61,0,0,0,0-1.07,7.31,7.31,0,0,0,2.79-.84c.75-.6,2.52-1.54,3.08-1.91s2.24-2.19,1.49-4.1-2.51-5-2.84-6.07-2-5.41-2.1-6.2a21.3,21.3,0,0,0-1.35-3.17,32.61,32.61,0,0,1-1.63-6.39,11.45,11.45,0,0,0-1.54-5,5,5,0,0,0-1.49-2,1.69,1.69,0,0,0,1.3-.23,2.84,2.84,0,0,0,.8-1l-.33,1.31a2.91,2.91,0,0,0,.56-1.5c.18-1.12.65.52.65.52a9.45,9.45,0,0,1-.23-2.38c.09-1,.33.79.33.79s0-1.67,0-2.47.7-5.41-.28-7.37-1.35-2.89-2-3,.1-.09,0-.37a4.76,4.76,0,0,0-3.73-.93c-1.82.33-5,1.12-5.79,2.89s0,4.52-.55,5.59a3.88,3.88,0,0,1-2,1.54l1,.1s-.65.6-.93.56l-.28-.05s.23.46.56.56-.33.56-.61,1.12a3.94,3.94,0,0,1-.65.93,3.09,3.09,0,0,0,.93-.56c.24-.28-.23,1.21-.09,1.77a3.7,3.7,0,0,0,1,1.31l-.24-1.49s.7.51.61,1.16a2.91,2.91,0,0,1-.51,1.21,1.56,1.56,0,0,0,.88-.93c.19-.65.52.93.29,1.12s.13.28.41-.46l.28-.75a2.77,2.77,0,0,1-.42,1.54,4.09,4.09,0,0,0-.56.65l1.08-.37s-2.66,3.87-1.68,7S439.67,73,439.67,73s-.65,5.36-1.59,7.37-.79,5.78-.51,8.3,1.17,6.48,1.17,6.48,4.57.84,5.18,1.07a2.07,2.07,0,0,1,.93.89,27.6,27.6,0,0,0-4.11,3.31l-3.82,4.11s-1.2.35-2.36.82a1.3,1.3,0,0,0,.12-.93c-.12-.59-.17-5.48-.19-6.07s-.13-1.93-.13-1.93l.25-.25-.22-2.42a4.33,4.33,0,0,0-.32-2,5.78,5.78,0,0,1-.55-2.17c0-.37.13-2.3.13-2.3L433.3,85a5.46,5.46,0,0,0,1.63-.2A3.43,3.43,0,0,0,436,83.51a4.27,4.27,0,0,0,.07-2.59,7.4,7.4,0,0,0-.88-1.68s-.4-1.63-.67-2.57a22.07,22.07,0,0,0-1.26-3c-.24-.5-1.38-3-1.38-3l.07-2.25a8.7,8.7,0,0,0,.4-.79c.2-.44.24-.32.07-.74s.08-3.21-.15-4.22A6.88,6.88,0,0,0,430,59.2l-1-.62a1.59,1.59,0,0,0-.55-.82l-.42-.29a14.8,14.8,0,0,0,1.71-1.31,3.77,3.77,0,0,0,1-1.53c.13-.54.57-2,.79-2.89s.47-.54.47-.54v-.62l.1.05a1.24,1.24,0,0,0,0-.5c-.08-.19.24,0,.24,0l-.17-.67s.12-.89.15-1.18a.55.55,0,0,1,.15-.4l.05-.17s.88.34,1.55.57a2.36,2.36,0,0,0,1.73-.05c.32-.2,1.09-1.26-.3-2.25a8.62,8.62,0,0,0-2.81-1.31s-1-2.44-1.9-3-1-1.38-3-1.8-2.6-.35-3.58,0a7.71,7.71,0,0,0-2.2,1c-.84.55-2.2,1-2.67,3.33a11.75,11.75,0,0,0-.32,4,2,2,0,0,0,.3,1.11,3.2,3.2,0,0,1-.08.94,1.35,1.35,0,0,0-.19.2h.22l-.27.79.19-.13.37,1.36c.08.25.52,1.16.84,1.26a.56.56,0,0,1,.4.59l.2-.34s0,.49,0,.56.15-.27.15-.27.07.4.15.74.07-.27.07-.27a4.73,4.73,0,0,1,.17.76c0,.2.13-.24.13-.24l.12.47.2-.25a6.35,6.35,0,0,1-.49,1.24c-.18.17-2.13,1.26-3,1.92s-1.85,1.23-2.17,2.2a57.39,57.39,0,0,1-2.44,6.07c-.57.89-1,1.9-.4,2.13a3.59,3.59,0,0,1,.77.37S413.7,72.85,414,74s.45,1.56.45,1.56.05,5.6.22,6.86,1,5.2,1.14,5.9.14,1.13.59,1.36a2.47,2.47,0,0,0,.89.24,10.4,10.4,0,0,0,.1,3,9.22,9.22,0,0,1,.39,3.3c-.12.79-.89,1.83-.89,2.25a14.46,14.46,0,0,1-.44,2.69c-.22.72-.57,2.27-.57,2.27l.17.25a17.33,17.33,0,0,0,.05,3c-.31,0-.62,0-.92,0,.16-1.72.59-5.23.71-5.46s.06-.57.23-.78-.12-.49.07-.81a3.5,3.5,0,0,0,0-2,16.55,16.55,0,0,0-.34-2c-.23-.53-1.11-2.33-1.42-3S413,89.52,413,89.52s.28-.1.53-.85a3,3,0,0,0-.06-2.16c-.28-.66-.85-2.11-.85-2.11l-.07-.44s-.48-1.17-.29-1.36a1.88,1.88,0,0,0,.78-1.23c.09-.72-.32-3.44-.38-5s-.89-8.37-.94-8.78-.9-3.86-1-4.17-1.27-1.12-1.19-1.29.25-.28.27-.34-.23-.18-.55-.22a1.43,1.43,0,0,1-.92-.75,8.56,8.56,0,0,1,.13-1.71,1.65,1.65,0,0,1,.88-.42,6.4,6.4,0,0,0,1.54-.14c.65-.17.62-.86.6-1.1a.8.8,0,0,1,.21-.5.33.33,0,0,0,.23-.16c.11-.15-.19-.54-.19-.54a1,1,0,0,0,.36-.23c.18-.18.13-.27,0-.36a1.18,1.18,0,0,1-.18-.59c0-.16.22-.28.47-.5s.08-.41-.07-.57a7.88,7.88,0,0,1-.62-.69,1.85,1.85,0,0,1,.08-1.11,5.1,5.1,0,0,0,.24-1.07c0-.1-.16-2.18-.16-2.18a3.75,3.75,0,0,1,.23.66c0,.14,0,.67,0,.94a2.57,2.57,0,0,0,.15.67,3.23,3.23,0,0,1-.05-.46c0-.33,0-.61,0-1.19a3.4,3.4,0,0,0-.6-1.39,2.52,2.52,0,0,1,.4.46,2.87,2.87,0,0,1,.33.71,5.21,5.21,0,0,1,.1.57c0,.1-.06.33-.08.52a4.71,4.71,0,0,0,0,.59,4.17,4.17,0,0,1,.09-.83,2.22,2.22,0,0,0-.39-1.64,1.78,1.78,0,0,0-1.31-.82s-.14-.15-.54-.51a11.84,11.84,0,0,0-2.83-1.37c-.77-.22-3.43-.78-5.45.58-1.71,1.15-2.1,4.9-2.16,6s.25,3.75,0,4.55-1,2.42-1,2.42a3.11,3.11,0,0,1-.61.2c0-.44-.17-1.14-.72-1.05a1.3,1.3,0,0,0-1,1.44.08.08,0,0,1,0,0,5,5,0,0,0-1.62,1,7.35,7.35,0,0,0-1,3.57,26.29,26.29,0,0,0,.07,3.91,5.66,5.66,0,0,1-.61,1.53,11.47,11.47,0,0,0-1.11,1.72.6.6,0,0,0,.09.75c-.16.21-.32.44-.29.53s.32.14.47-.39a1.83,1.83,0,0,0,.24.13c.38.19.16-.6.16-.6s.06-.86.28,4.68,6.18,6.34,6.18,6.34l.71,0a4.11,4.11,0,0,0-.06.72,17.34,17.34,0,0,1-.51,2.38,8.64,8.64,0,0,0-.11,1.93l.68-.09s-.1-.8-.1-1.14a19.63,19.63,0,0,1,.38-1.94s0,1.55,0,2a5.31,5.31,0,0,0,.32,1.19s.7-.07.66-.15a9.94,9.94,0,0,1-.53-1.21,11.94,11.94,0,0,0-.28-2c-.19-.51.43-1.69.43-1.69a8.44,8.44,0,0,0,.29,2,24.34,24.34,0,0,1,1.06,3.37c0,.58-.27,3.76-.29,4.15a2.1,2.1,0,0,1-.2,1.42c-.37.66-.1.29,0,.89s-.5.87-.74,1.1-.91,1.13-1.19,1.51-1.8,2.23-2.93,3.51-2.08,4.45-2.52,4.8-.56,1-.69,1-.29.79-.29.79a3.84,3.84,0,0,0-1.19.7,4.71,4.71,0,0,0-1.36,2.65c0,.15.16.35.42.57-1.63-.29-3.25-.53-4.87-.67a96.24,96.24,0,0,1-9.75-1.86c-3.06-.61-7.2-2.45-9.93.08a14.29,14.29,0,0,1-.25-2.58,53.14,53.14,0,0,0-.91-6s.07-.45.38-1.65a7.52,7.52,0,0,0,.13-2.52,4.59,4.59,0,0,1,.93-.18,12.42,12.42,0,0,0,2.1.08,5.77,5.77,0,0,0,2-.41,8.39,8.39,0,0,0,1.74-.81c.49-.41-.28-2.07-.48-3.26a40.33,40.33,0,0,0-1.67-6.18c-.73-1.9-2-7.48-2-7.48s.09,0,.45-.56,0-2.28-.66-5A38.26,38.26,0,0,0,366,65.78c-.41-.53-2.94-2.88-2.94-2.88l.08-1.19a10.5,10.5,0,0,0,2,.25,1.36,1.36,0,0,0,.89-.76,16.51,16.51,0,0,1,1.64-2.3c.45-.56.58-1,.41-1.32a2.46,2.46,0,0,1,0-1.19s.66-.6,1-.91a9.29,9.29,0,0,0,.56-2.52l-.1-.87c-.1-.86-2.48-4-2.48-4a3.83,3.83,0,0,0-1.62-1.41,16.15,16.15,0,0,0-5.42-.1,2.47,2.47,0,0,0-1.77,1.26,6.77,6.77,0,0,1-.76-.4c-.3-.2-.3,0-.3,0L357,47A5.47,5.47,0,0,0,356,45.56c-.16-.15.05,1-.26.46a5,5,0,0,0-1.42-1.11l.87,1.37a8.79,8.79,0,0,0-1-.56,4.78,4.78,0,0,0-1.72,0s1.32.61.61.61a1.08,1.08,0,0,0-1,.7s1.32-.3.75,0-.55,1.51-.55,1.51l1.36-1.27a14.62,14.62,0,0,1-.95,1.42,3.1,3.1,0,0,0-.51,1.22l1.12-.66L353,50c-.3.81.15,2,0,1.36s.6-1.51.86-.75,1.27,1,1.27,1l-.26-.31a12,12,0,0,1-.81-1.67l1,1.12-.51-1.07c-.51-1.06.65-1.71.65-1.71l.31.65a1.65,1.65,0,0,1,.11-.76c.14-.4,1.11.21,1.11.21l.1.35a2.27,2.27,0,0,1,.1.56l-1.11,1.57c-.66.9-.16,2.68-.16,3s.81,1.52.86,2.33a2,2,0,0,0,.66,1.31l.15.56c.16.56.91.66.91.66l-.15,1.52a.91.91,0,0,1-.71.25c-.5,0-1,.66-1.92,1.67a30.54,30.54,0,0,0-2.83,4.3c-.26.46-1.87,1.83-3.45,3.39s-2.52,2.68-2.42,3-.56.9-1.07,1a1.06,1.06,0,0,0-.7.45l-1.64.34c.17-1.82.37-4.27.37-5.12,0-1.07-.31-3.25-.29-3.83a5.62,5.62,0,0,0-.16-1.29s-.42.12-.56-.15-.31-.39-.37-.63c0-.07,0-.09,0-.1a2.61,2.61,0,0,1-.51-.23l-1.21-.66A6.51,6.51,0,0,1,341,61a7.39,7.39,0,0,1,.64-1,7.94,7.94,0,0,1,1-.11,7.09,7.09,0,0,0,1.56-.17.9.9,0,0,0,.51-.77c0-.47,0-.58.1-.68s.31-.1.24-.3-.12-.22-.12-.22.46-.08.39-.32a4.14,4.14,0,0,1-.09-.72s.89-.32.73-.71-.65-.81-.69-1.18a7.87,7.87,0,0,1,.4-1.82,3.78,3.78,0,0,0-.13-2.31,4.71,4.71,0,0,0-2.46-3,9.46,9.46,0,0,0-2.66-.71,1.39,1.39,0,0,0,.46-1c0-1.43-.75-1.63-1.16-1.22a9,9,0,0,0-1,2,.09.09,0,0,0-.09,0h0c.08-.71.12-2.09-.68-2.49-1.09-.54-1.56-1.36-1.15.14,0,.21.11.42.17.63a4.22,4.22,0,0,0-2.86.36c-.59.4-1.61,1-1.61,1s1.61-.53,2.07-.74a11.28,11.28,0,0,0-1.85,1.14,3.78,3.78,0,0,0-1.18,1.88c-.15.68-.24,1.32-.29,1.72a5,5,0,0,0,0,2.36l.44,1.69s-.13-.92-.19-1.51-.06-1.42-.06-1.42l.09.7c0-.22,0-.47,0-.73l.13-1.29.39-.44a5.74,5.74,0,0,0-.35,3.16c.37,1.65.7,2.29.35,3.44a4.28,4.28,0,0,1-.56,1.31,4.43,4.43,0,0,0,.65-.94,8,8,0,0,0-.24,1,4.1,4.1,0,0,0,0,1.15s.06-.62.14-1,0,.37.14.76l.15.39a3.9,3.9,0,0,1,0-1.09,5.38,5.38,0,0,1,.37-1.4,2.3,2.3,0,0,0,.43-1.13c0-.51.19.76-.12,1.3l-.31.53s.8-.72.8-1.15c0-.21,0-.42,0-.63a.73.73,0,0,1,.21.47c0,.3.2-.17-.05-.89a2.83,2.83,0,0,1,0-1.69c.11-.53.09.37.07.7a5.27,5.27,0,0,0,.06.93s.16-1.09.18-1.73a8.52,8.52,0,0,1,.37-2.65c.31-.68.07.35.07.35a2.62,2.62,0,0,0,.59-.89,7.49,7.49,0,0,1,.75-2.13.23.23,0,0,1,0,.11v.37s.34-.52.41-.68,0,.44,0,.44a1.22,1.22,0,0,1,.58-.8c.53-.34.19,0,.37.06a.8.8,0,0,0,.23,0c0,.11-.12.16,0,.21l.12.09a4.26,4.26,0,0,0-1.79,1.31,5.89,5.89,0,0,0-.76,2.43,9.87,9.87,0,0,0,.39,4.32c1.15,2.6.21,2.25.21,2.25s-.93-.09-1,.35-.39.26-.33.59-.95.47-.95.47a5.67,5.67,0,0,0-1.8-.57,2.18,2.18,0,0,0-.22-.52c-.58-1-1-.94-1.4-.49a2.9,2.9,0,0,0-.37,1.42,2.32,2.32,0,0,0-1,1.23c-.35,1-2.33,6.53-2.64,7.7s-1.7,4.57-1.5,7.32-.08,5.87,1,6.9,4.44,1.77,4.44,1.77l-.2.78.66.19,0-.56s.43.64.51.83a10.16,10.16,0,0,1,1.38,2.71c.47,1.55.93,3.65,1.4,4.92a12.28,12.28,0,0,1,.74,2.29,12.17,12.17,0,0,1-.66,4.46c-.49.84-1.64,5.35-1.93,6.07s-.44.93-.35,1.11a3.11,3.11,0,0,0,.35.52s-1,.72-.56,1.52c.11.21.2.37.28.5-3.13-1-6.25-1.81-9.16,2-.66.87-3.46.52-5.2-.52-1.41-.84-3-1.3-4.48-2.1-2.57-1.44-4.54-2.19-4.87,2.05-.15,2-2.29,1.25-3.59,1.73-4.11,1.55-10.63-4.57-12.59,3.88-.06.23-.95.5-1.37.39-1.8-.46-3.77-.76-5.71-1.07a2.57,2.57,0,0,0-.66-.74c-2.57-2-.88-1.15-1.75-2.23s-1.56-.87-1.56-.87l.68-6.42.13-2.7,1.35-5.94,3.11-9.66a7.63,7.63,0,0,0,2.36-5.53c.07-3.65-2.2-10.2-2.2-10.2s.27-6.48.45-8.33a23.42,23.42,0,0,0-.09-5.45c-.22-1.16-.22-2.92-.31-3.55s.18-1.67-.23-2.07a8.23,8.23,0,0,1-.85-2.25,10.54,10.54,0,0,0,.45-3.56,10.38,10.38,0,0,0-.9-3.42c-.54-1.3-.68-1.57-.68-1.57s-.45-4.1-.59-4.5,1.4-3,.41-6a17.46,17.46,0,0,0-1.93-4.28,7.36,7.36,0,0,1-.18-.76,3.4,3.4,0,0,1,0-.43l.27.23a4.88,4.88,0,0,0,0-.57c0-.4,0-.76,0-.76s.57,0,.32.22.56.07.87-.38,1.51,1.33,1.9,1.42-.3-.59-.57-1,.57.18.91.28-.59-.28-.79-1a6.79,6.79,0,0,1,.31-2.45s.39,1.26.18,1.62l-.2.36a1.17,1.17,0,0,0,.5-.47c.17-.34-.09,1.09-.16,1.21a5.28,5.28,0,0,0,.58-1.23c.16-.59.32.74.27,1.14a16.71,16.71,0,0,0,.23-2,12,12,0,0,1,.2-1.8c.07-.4,0,1,0,1a4,4,0,0,0,.13-3,27.39,27.39,0,0,1-.72-5.6,27.3,27.3,0,0,0-1.28-5.68c-.6-1.93-2.5-5.55-3.46-6.1A5.13,5.13,0,0,0,278.2.22L278,.33A4.27,4.27,0,0,0,276.08,0c-1.08.1-2.5,1.72-3.53,3.88a31.73,31.73,0,0,0-2.43,6.16,32.85,32.85,0,0,1-1.33,5,2,2,0,0,1-.65.58s-3-.72-3.92.27a9.19,9.19,0,0,0-1.51,2.57,7.31,7.31,0,0,0-.67,2,11.34,11.34,0,0,0,.13,2.28c.12.33.21.36.21.36l-.05.33a22.86,22.86,0,0,0-.4,5,7.5,7.5,0,0,0,.47,1.84s.34,5.22.34,6.55a11.75,11.75,0,0,1-.11,2.61c-.16.52.11,3.08-.25,4a6.62,6.62,0,0,0-.34,2.9c.13.27,1.21,5.15,1.51,6.33S265,56.87,265,57.07s-.33,1,0,1.21l.31.25s.88,3.2,1.18,3.26l.29.07a10,10,0,0,0,.11,1.58c.11.43,1.42,3.58,1.42,3.58a12.51,12.51,0,0,1-.68,1.68,5.78,5.78,0,0,1-.69.75s-.14-.14-.45.29-.28.88-.52,1.21a1.84,1.84,0,0,1-.75.52,2.73,2.73,0,0,1-.81-1,5.13,5.13,0,0,0-.83-1.22l-.38-.79a2.59,2.59,0,0,0-.11-1.66l-.39-.54.66-1.62a7,7,0,0,0,1.35-3c.07-1.3.15-2.07,0-2.11l-.16-.05s-.16-4.63-1.17-5.28a4.24,4.24,0,0,0-2-.84,2.82,2.82,0,0,1-1.2-.36,1.45,1.45,0,0,0-1.05-.09c-.2.09-1.2.05-1.51.34a8.56,8.56,0,0,0-1.31,2.16c-.18.54-.85,2.21-1.1,2.83a9.21,9.21,0,0,0-.48,2.68c.1.32-.22.23-.22.66a3.16,3.16,0,0,0,.52,1.3,4.94,4.94,0,0,1,.36,1,1.69,1.69,0,0,1,0,.38,4.76,4.76,0,0,0-.77-.58,1,1,0,0,0-1,.18c-.27.32-.9,1-.9,1s-2.05.74-2.29,1.17-.12.49-.39.92-.61,1-.51,1.33a3.44,3.44,0,0,0,.15.47,16.75,16.75,0,0,0-2.39,3.67c-.74,1.78-2.49,4.32-1,6.32s2.05,2.89,2.05,2.89-.36,5.47-.67,6-1.45,1.71-.54,2,.81.64.81.64a33.9,33.9,0,0,1,.49,3.87,37,37,0,0,0,.29,4.39c.16.36,0,.74.14,1s-.36.72-.2,1a1.54,1.54,0,0,1,.15.59s-.52.63-.47.88,0,.2-.25.58a2,2,0,0,0-.29.86,25.62,25.62,0,0,0-1.14,2.74,6.92,6.92,0,0,0-.09.75c-5.21,3.69-12,3-17.57,5.63-4.14,1.93-8.8,1-13.15,2-7.12,1.65-14.21-.74-21.14-1.54-4.11-.48-5.85-.4-7.17,3.33-3.48-4.15-6.26-4.17-10.17-.54a3.1,3.1,0,0,1-1.74.84c-5.13.32-10.26.54-15.4.82-1.25.07-2.27-.84-2.12-1.64.7-3.71-1.3-4.08-4.21-5.53-3.28-1.63-7.28,1-9.72-2.46-.4.28-1,.49-1.16.87-2.18,4.17-3.89,2.17-5.73-.31-.62-.84-1-2.55-2.48-1.91s-.54,2-.23,3.05c.39,1.29.2,2.41-1.21,2.83s-2.75.63-2.21-1.75c.22-1-.74-.8-1.38-.59-2.92,1-2.34-.69-1.63-2.28.36-.81,2.76-1,.86-2.45-1.27-1-2.09.17-2.92,1-2.17,2.15-4.72,2.25-7.73,2.54-6.17.58-12-1-17.64-2.26-5.29-1.18-10.83,3.36-15.73-1.27-.76-.72-1.36,1-2,1.71-2.25,2.53-6.54,5.39-8.21,4.06-3.08-2.44-5.71-1.67-8.59-1.41-4,.36-7.5-1.62-12.17,1.54-4.83,3.25-12.43.27-18.82.63a1.78,1.78,0,0,1-1.34-.57c-1.81-2.55-3.55-2.15-6.32-1a15,15,0,0,1-9.12.43c-2-.57,2-2.7.66-4.5-6.67,1.92-11.92,7.08-19,7.91,0,11.83.18,23.67-.1,35.5-.09,3.76.85,4.59,4.6,4.59q955.5-.14,1911-.09a10.16,10.16,0,0,1,2,0c2.16.43,2.6-.37,2.57-2.52C1920,139.2,1920.11,126.7,1920.11,114.2ZM1632.59,54.89h0c-.09-1.18-.09-2.67.47-2.67.75,0,1.1-.48,1.84.41A8.68,8.68,0,0,0,1632.59,54.89Zm-159.24-19a4.7,4.7,0,0,1,0,.64A6,6,0,0,1,1473.35,35.94Zm-20.57-5.56s-1.07,1-1.16.38a1.79,1.79,0,0,1,1.08-1.6C1453.05,29.16,1452.78,30.38,1452.78,30.38Zm5.31-.94a6.82,6.82,0,0,1-.52,1.31l-.13-.09C1457.52,30.26,1458.21,28.88,1458.09,29.44Zm-61.66,22.27a2.56,2.56,0,0,0-.66.09c.06-.33.18-.66.36-.66s.41.35.49.57Zm-356.8-15.65c1,.59,1.18,1.83,2.86,3.51a8.45,8.45,0,0,1,2.48,4.5,2.35,2.35,0,0,1-1.24,2.67c-1,.4-2.32-.35-3.12-1.19s-1.28-3.21-1.83-5.49a22.19,22.19,0,0,0-1.87-4.69l-.25-.6A20.87,20.87,0,0,1,1039.63,36.06ZM755.19,79.33s.49,1.87.64,2.32a8.23,8.23,0,0,0,.79,1.68,4.93,4.93,0,0,1,.1,2.28c-.05.59-1.48,1.53-1.48,1.53s0-.79,0-1.39-.2-2-.25-3A29.39,29.39,0,0,1,755.19,79.33ZM562.49,55.46a2.73,2.73,0,0,0-.62.15c0-.33.11-.65.29-.67s.42.3.52.51ZM520,64.2c.06-.94.87-4.29,1.24-6,.31-1.42.17-1.1,1.39-6.71,0,0,.25,0,1.58.14s5.78.51,5.86.54.4.28,1.13.62a3.08,3.08,0,0,0,1.69.11l-.59,1.66L523.9,76.16S523,74,522.6,73.25s-2.87-6.12-2.87-6.12a1.83,1.83,0,0,0,.39-.34C520.35,66.54,519.89,65.13,520,64.2ZM397.52,59.72a2.36,2.36,0,0,0-.59.13c0-.31.1-.61.27-.63s.41.28.5.48Zm-66.75-.95a3.35,3.35,0,0,0-1.24.38A2.69,2.69,0,0,1,330,58c.17-.1.54.36.81.75ZM271.88,69.3l-.09.42-.21-.14S271.62,69.44,271.88,69.3Zm-18.17,32.26c0-1.1.38-3.76.38-3.76l.36-1.86s.52,1.15.57,1.35-.09,3.53,0,4.23a5.38,5.38,0,0,0,.47,1.17,4.49,4.49,0,0,1,0,1.37c0,.11,0,.59-.07,1.19a15.48,15.48,0,0,1-3.24-.63,1,1,0,0,0,0-.33A6.33,6.33,0,0,0,253.71,101.56Zm6.56,4a21.48,21.48,0,0,0-.17-2.36,8.46,8.46,0,0,1-.11-.94c-.09-.41.36-.39.34-.77s-.36-.74-.11-1.51a47.39,47.39,0,0,0,.4-7.81c-.2-.58.88-.42.88-.42s-.25-3.45-.25-4a28.9,28.9,0,0,1,1.1-3.42c0-.2.21-2.16,0-2.23s.4-1.2.4-1.2.56-2.81.64-3.37l.06-.56s1.82,1.15,3.2.25a17.54,17.54,0,0,0,3.67-4.46,6.86,6.86,0,0,1,.83-1.82c.16-.17.34-.35.51-.51l-4.16,18.42,8.26-1.18a60.77,60.77,0,0,1-1.44,6.22,65.84,65.84,0,0,0-1.69,7.77,45.24,45.24,0,0,1-1.39,6.19,16,16,0,0,1-.88,2.11c-2-1-4.07-1.94-6-3.12A9.72,9.72,0,0,0,260.27,105.61Zm79.66-12.8c.7,0,.94,1.72.94,1.72l-1.06.87a15.17,15.17,0,0,1-.13-1.52C339.64,92.93,339.93,92.81,339.93,92.81Zm7.75,16.94c.16-1.24,0-2.46-1.41-2.81s-2.81,0-3.22,1.56c-.35,1.33-.88,1.94-1.52,2.2a1.24,1.24,0,0,0-.78-.77,5.39,5.39,0,0,1-2-1.15c-.37-.42-.39-.52-.39-.52s1.87-.06,1.58-.41-1.13,0-1.3.15.19-.31.17-.73-.35-.72-.45-.35-.21,1-.25,1.06a4.71,4.71,0,0,1-.23-1.37c0-.37.7-1.48.85-2a1.88,1.88,0,0,1,.47-1.09c.45-.64,2.18-3.44,2.57-3.93s1.48-1.3,2-1.79a3.47,3.47,0,0,1,1-.74c.39-.25.27-.07.92-1a5.1,5.1,0,0,0,.36-4.28c-.6-1.11-3.54-5.31-3.54-5.31l-.13-.62s0-.82,0-1.19a8.52,8.52,0,0,0-.33-1.44s.22-1.65.35-2.27c.07-.35.28-1.5.47-2.74a.82.82,0,0,0,.31-.13c.38-.25.49-.48,1-.53s2-.33,2-.33a2.23,2.23,0,0,0,1.29-.56,10.54,10.54,0,0,1,3.13-1.9c1.45-.5,3.62-3.25,3.62-3.25a7.48,7.48,0,0,1,.16,1.77,14.51,14.51,0,0,1-.18,3.21,7.29,7.29,0,0,0-.41,2.2,17.36,17.36,0,0,1-1,2.83,2.92,2.92,0,0,0,.6.25c.28.09,0,0-.53,1.07a39.65,39.65,0,0,0-2.12,7.46c-.31,2.1-.23,5.11.75,5.34s2.51.63,2.51.63-.15,1.11-.23,2.08-.81,1.8-1.9,4.86-.28,8.12-.28,8.12a10.16,10.16,0,0,1-.65,1.11l-.06.09c-.41,0-.82.07-1.24.14C347.48,113.07,347.46,111.39,347.68,109.75Zm9.28,3.32a1,1,0,0,1-.17-.46c0-.4-.93-1.09-1.11-1.16s-.26-.58-.26-.58.71-4.33,1-5.72a19.78,19.78,0,0,1,1.32-3.36,13,13,0,0,0,.86-1.73,10,10,0,0,0,.68-3.06h1.21s.11.43.28,1.19a3.65,3.65,0,0,1,.18,2.38,21.59,21.59,0,0,0,.51,5.79c.22,1.19,1.39,4.51,1.39,4.51s-.28,1.16-.53,1.92a5.67,5.67,0,0,0-.17,1.12,11.25,11.25,0,0,1-1.6-.16C359.38,113.55,358.17,113.3,357,113.07Zm84-5.67,3.26-3.36s.19,2.61.47,4.06.65,5.17.65,5.17-.18.38-.37.92a15.38,15.38,0,0,0-3.12-1.7c-.4-1.42-1.21-2.51-1.18-3.18A12,12,0,0,1,441,107.4Zm-7.3,1.73.18.25-.19-.06ZM398.49,113a2.38,2.38,0,0,1-.37-.75c-.26-.78-.66-2.55-.66-2.55s-.07-.4-.17-.87.38-.23.63-.74.68-.89.62-1.47.36-.57.51-.7a1.34,1.34,0,0,0,.51-.83c0-.33.25-.53.76-1.12s1.62-2.42,2-2.93a12.73,12.73,0,0,1,2.1-1.6A5.81,5.81,0,0,0,406.33,97a22,22,0,0,0,1.13-3.32l.36.58c.36.57,2.72,3.57,2.72,3.57s-.2.06.08.8.11.36,0,.66.13.36.11.6a6.36,6.36,0,0,1-.36,1.14,13.38,13.38,0,0,0,.13,3.17c0,.37,0,.82.05,1.3l-.2-.08c-1.23-.53-2,.4-2.65,1.58-1.8,3.12.4,4.34,3.15,5.9a2,2,0,0,1,.09.43A39.92,39.92,0,0,1,398.49,113Zm25.06-7.47a17.34,17.34,0,0,0,.52-2.56,46.37,46.37,0,0,1,.94-4.57,4.54,4.54,0,0,0,1,2.05c.64.52.74.67.79.81s-.17.4-.25,1.17a5.5,5.5,0,0,0,.64,2.05c0,.08.06.17.1.26-.45.11-.92.24-1.3.31C425.15,105.14,424.35,105.31,423.55,105.48Zm4.64,1.77a7.1,7.1,0,0,0,.71-1.54l.3,0s.59.57.79,2.72v.11l-.4,0C428.74,108.43,427.55,108.37,428.19,107.25Zm49.19,4.58c-.46.08-.91.18-1.36.28L489.74,101a50,50,0,0,1-1.78,6c-.74,1.58-3.39,4.43-1.92,5.65l.26.17C483.17,113.54,480.21,111.28,477.38,111.83Zm9.61,1.39a26.71,26.71,0,0,0,5.34,1.34C490.22,116.07,487.82,120.05,487,113.22Zm261.52-9.66s.6,2.12.84,2.67,1,1.18,1.24,1.88a7.62,7.62,0,0,1,0,2.37l-.74-.1-.1-.54a6.34,6.34,0,0,0-.1-1.49c-.15-.69-.84-.94-1.14-1.28S748.51,103.56,748.51,103.56ZM739.86,116c-3.54-1.79-7.22-3.34-10.65-5.33l-.07,0a1.22,1.22,0,0,1-.06-.42c0-.74,1.14-1,1.14-1.83s-.25-3,1.87-7.71c.94-2.06,1.95-4.11,2.87-5.88l7.46-.62c-.09.71-.15,1.3-.19,1.65-.1,1-.3,2.87-.3,2.87a13,13,0,0,0-2.72,1.24,7.23,7.23,0,0,0-1.53,1.58,12.42,12.42,0,0,0,.64,1.88,9.94,9.94,0,0,0,.89,1.24l1-.45a18.25,18.25,0,0,0,.55,3c.34,1,1.13,3.11,1.13,3.11a15.24,15.24,0,0,0-.69,2.38,13.68,13.68,0,0,0,0,2.27l.64.3,0,1A2.64,2.64,0,0,1,739.86,116Zm378.24-2,.71.33c-.23.07-.46.14-.7.19C1118.1,114.18,1118.1,114,1118.1,114Zm-.64-10a55.09,55.09,0,0,1,.89-8.16c.25-1.23,1.58-1.73,2.22-2.72s.4-2.62.6-4.4.25-10.19.25-10.19a17,17,0,0,1,.84,2c.19.7,1.23,2.23,1.83,3.46a23.58,23.58,0,0,1,1.68,4.21,1.82,1.82,0,0,1-.65,1.58,2.33,2.33,0,0,0-.34,1.73c.1.55-.5,1.34-.94,2.08s-.84,2.47-2.08,5.49-3.88,11-3.88,11A41.34,41.34,0,0,1,1117.46,104Zm-26.7-1.28c.44-.85,0-2.08.15-2.43s.74-.64,1-.64.5-1,.45-1.58.69-.69.79-1.34-.2-4,0-6.08.59-7,.59-7,1.19-.1,1.19,0a7.09,7.09,0,0,0,1.48,1.33,5.22,5.22,0,0,1,1.24,2.57c.1.55.94.8,1.24,1.29s0,1.14-.15,1.73.94,1.34.49,1.68a5.33,5.33,0,0,0-1.14,2.43c-.1.69-1.28,1.82-2,2.32a8.83,8.83,0,0,0-1.59,2.62l-.59-.2s-.54.5-1,1a6.5,6.5,0,0,0-.84,2.13l.64,1.18a15.8,15.8,0,0,1-.89,1.64,8.48,8.48,0,0,0-.69,1.87l-.84-.49a8.06,8.06,0,0,0,0-1.58A4.73,4.73,0,0,1,1090.76,102.72Zm-8.85-16a7.38,7.38,0,0,0,2.29-.29s.15,2.22.15,2.82a12.3,12.3,0,0,1-.81,3.48c-.45,1-.37,4.6-.37,4.6a6.23,6.23,0,0,1-.67-1.41,10.87,10.87,0,0,0-.82-3,9,9,0,0,1-.81-3.34,11.06,11.06,0,0,0-.67-2.67A4.6,4.6,0,0,1,1081.91,86.74Zm-62.66,18.6a16.91,16.91,0,0,0,.15-3.61c0-.89.64-1.09.89-1.49a9.26,9.26,0,0,0,.4-2.32c.09-.69.74-.59,1-1.29s.64-3,.64-3a27.46,27.46,0,0,1,1.28,2.67,17.92,17.92,0,0,1,1.54,4.3,47.9,47.9,0,0,1,.19,7.42,21.68,21.68,0,0,0,0,3.74c-1.17.1-2.34.26-3.5.46a3.16,3.16,0,0,1-1.36-1.43c-.35-.85-1-.75-1.34-1.29s.65-1.09.6-1.73-.84-.4-.84-.4A20.12,20.12,0,0,1,1019.25,105.34Zm-15.67,2.47c.39-.64.49-2.47,1.73-5.49s1.38-7.66,1.93-8.7,1.78-.84,2.17-1.14a5.11,5.11,0,0,0,1.24-2.18,1.73,1.73,0,0,1,.69-1s-.25,3.51-.25,4.45a8.6,8.6,0,0,1-.89,3.21,14.33,14.33,0,0,0-.59,4.3c-.05,1.34-.05,4.9-.4,5.79a10,10,0,0,0-.05,3.76,5,5,0,0,1-.34,2.22,1.75,1.75,0,0,0,0,.73,17.88,17.88,0,0,1-5.15-1.61c-.44-.45-1-.9-1-.9A2.57,2.57,0,0,0,1003,110c-.1-.45-.54-.15-.59-.3A13.31,13.31,0,0,1,1003.58,107.81Zm55.52,3.93c-.15,2.44-3.62,2.84-6,1.29-.79-.52-1.24-1.55-2.4-1.46-1,.07-1.92.09-2.88.08.63-.57,1.08-1.1,1-1.42a1,1,0,0,0-1.58-.79,21.91,21.91,0,0,1-3,1l.1-2.57a11.93,11.93,0,0,0,2.28-2.77,39.67,39.67,0,0,0,3.16-8.06,4.27,4.27,0,0,1,.13-.48c6.92-.71,18.64-2.28,21-2.6a.6.6,0,0,0,.06.11c.59.89,1.63,4.9,1.92,6.08a43.9,43.9,0,0,0,3,7.13c1.34,2.47,2.77,5,2.62,5.68l-.06.24c-4.69-2.33-9.87-2.91-14.91-3.93C1061.71,108.87,1059.37,107.33,1059.1,111.74Zm44.21,2.7c-1.43,2.06-3.19,4.27-6.12,2.85a5.77,5.77,0,0,1-1.39-.91v-.07a13.42,13.42,0,0,0,2.72-1.28c.64-.54,1.48-1.44.94-1.83a8.3,8.3,0,0,0-2.82-.4,13.61,13.61,0,0,1,1.63-2.91c1-1.29,1.68-2,1.68-2h.89a10.71,10.71,0,0,0,1-1.93,16.21,16.21,0,0,0,.45-1.83l-.3-.3s2.28-1.63,2.33-2.47,0-2.67.64-2.77a1.92,1.92,0,0,0,1.63-1.13c.25-.7.74-.8,1.09-1a1.57,1.57,0,0,0,.74-1.39,6.59,6.59,0,0,1,0-2.22,7.44,7.44,0,0,0-.15-3.42c-.3-1.38-1.09-3.21-1.09-4.3a12.73,12.73,0,0,0-.29-2.37l.39-.55s-1-2.67-1.58-3.9a38.74,38.74,0,0,1-1.83-5.05,12.55,12.55,0,0,0-.94-3,9.38,9.38,0,0,1-.94-3.81,7.81,7.81,0,0,0,.25-3.31c-.3-1.29-1-2.67-.89-3.07s.94-.79,1.13-.49,1.19,2.12,1.79,1.87a.88.88,0,0,0,.44-1.18,6.16,6.16,0,0,1-.35-.84,3.66,3.66,0,0,1,1.29.15,4.16,4.16,0,0,1,1.14.94,40.32,40.32,0,0,1-.65,6.52c-.59,2.82-1.48,4.85-1.33,5.49s1.14,1.34,1.78,1.68a13.13,13.13,0,0,0,2.57.74c.4.1,1.39.3,1.39.3s.44,6.43.84,7.91a11.92,11.92,0,0,1,.29,5c-.29,2-1,6.57-1.58,7.51s-1.29,8.06-1.68,12.32c-.13,1.35-.26,2.61-.39,3.73C1106.41,111.49,1104.82,112.27,1103.31,114.44ZM1372.22,17a4.39,4.39,0,0,1,1.63-.63s.09.67.12,1.3a4.89,4.89,0,0,0,.51,2.13c.36.63,1.8,1.55,1.77,1.77s-.87.58-1.18.36a7.27,7.27,0,0,0-1.53-.9,11,11,0,0,0-2.1-.27c-.34,0-.68-.6-.66-1.37A4.86,4.86,0,0,1,1372.22,17Zm-43.06,96.28a15.57,15.57,0,0,0-5.76-2.92,1.69,1.69,0,0,1-.4-1.3c.11-.27.41-.85.22-1a1.28,1.28,0,0,1,0-1.35,15.74,15.74,0,0,0,1.09-5c0-1.46.74-3.81,1.07-5.48.09-.44.23-1,.41-1.71l6.07-.2c.69,2.74,2.34,6.59,2.92,8.37.74,2.28,2.08,5.89,2.08,5.89a9.91,9.91,0,0,0-.44,2.52c-.13,1.76.06,2,.44,2.58a.39.39,0,0,0,.14.1l-.45.14C1333.9,114.74,1331.75,115.21,1329.16,113.26Zm12.2,3.16a3.08,3.08,0,0,1-4.23-.38,31.55,31.55,0,0,1,3.71-2l1.83,0a8.69,8.69,0,0,0,.33-.82,7.36,7.36,0,0,1,2.22-.14,24,24,0,0,0,3.52-.31l.32.48a5.81,5.81,0,0,0,2,1.54A12.38,12.38,0,0,0,1341.36,116.42Zm19.54,1.52a25.64,25.64,0,0,1-3.27-1.18l-.73-.25a3,3,0,0,0,.42-1.34c-.07-.5-.49-.7-1-1.24s-1.12-4.17-1.12-4.39-.1-1.75-.1-1.75.38,1.87,1.19,1.84.61-.21.4-1-1.88-1.49-1.9-1.9a13.73,13.73,0,0,1,.78-3.39,29.94,29.94,0,0,1,1.16-3.15c.33-.57,3.53-4.49,4.8-6,.76-.92,1.87-2.34,2.65-3.34l.74-.1c-.12.74-.28,1.65-.38,2a33.67,33.67,0,0,0-.47,5.56c.1,1.19.37,6.18.35,7.58,0,1.12-.4,4.83-.58,6.26a3.24,3.24,0,0,0-2.47.15,1.47,1.47,0,0,0,1,1.77l.07,0a13.13,13.13,0,0,0-.12,3.14,1.86,1.86,0,0,0,.34.9A5.37,5.37,0,0,1,1360.9,117.94Zm39.38-7.38c.12-1-.38-1.68-1.41-1.49-2.31.44-4.61-.1-6.93-.49-.2-.91-.45-2.74-.45-2.74s0-.44-.1-1,.44-.21.77-.74.82-.9.81-1.53.45-.58.62-.71.6-.48.63-.85a.74.74,0,0,1,.18-.38l11-1.76,0,.13a5.61,5.61,0,0,1,.25,1.5,33.39,33.39,0,0,0-.09,5.35c.18.56-1.1,1-1,1.54s-1.2,1.29,0,2.25-1.82,1.16,0,1.71l.76.22a10.72,10.72,0,0,1,0,1.6C1402.92,113.75,1399.56,116.5,1400.28,110.56Zm51.16-1.51a11.85,11.85,0,0,1,.89-1.33c.56-.66.13-.74.78-1a1.17,1.17,0,0,0,.47-1.51c-.15-.42,2.18-2.31,3.34-3.15s4.64-5.35,5.92-6.71a44.57,44.57,0,0,1,4.06-3.46s-1.52,5.45-1.74,6.39-.6,6-1.11,7.27-1.47,3.32-1.42,4,.48,1.15.3,1.6a4.07,4.07,0,0,1-1.89-.36C1458,109.37,1454.72,109.18,1451.44,109.05ZM1588.82,89.6l-.58.32c0-.15,0-.58.1-1.15l1.45-.67Zm-7.63,20.12,1.09-1s.19.17.48.4a6.45,6.45,0,0,0-1.55.7Zm22.5-71.2-.24.13a.57.57,0,0,1,0-.13l.24-.09v.09Zm-20.49,62.85s.52-3.14.82-4.18,3.6-6,4.14-7.09l-1.7,3.9a27.62,27.62,0,0,0-2.13,4.89v0l-.86,2,.1-.06C1583.36,101.16,1583.2,101.37,1583.2,101.37Zm22.47-60.64a.2.2,0,0,1,0,.13v.42s.39-.6.46-.77,0,.49,0,.49a1.44,1.44,0,0,1,.66-.92c.6-.38.22,0,.43.07a.92.92,0,0,0,.25.05c0,.12-.13.18,0,.24l.14.09a4.86,4.86,0,0,0-2,1.5,6.68,6.68,0,0,0-.86,2.76c0,.91-.33,3.18.44,4.92,1.31,2.95.23,2.55.23,2.55a2.43,2.43,0,0,0-.65,0,4.57,4.57,0,0,0-.25-1,15.55,15.55,0,0,0-1.08-1.9,2.62,2.62,0,0,0-.12-.55,3.11,3.11,0,0,1,0-1.92c.12-.61.09.42.07.79a7.77,7.77,0,0,0,.07,1.06s.19-1.24.21-2a10,10,0,0,1,.42-3c.35-.77.07.4.07.4a2.94,2.94,0,0,0,.68-1A8.7,8.7,0,0,1,1605.67,40.73Zm-1.36-2.54-.21.11v0Zm-.66-3.94c0,1.15.08,2.86.06,3.74l-.23.15c.07-.9.11-1.66.13-2.14C1603.63,35.23,1603.65,34.67,1603.65,34.25Zm-14.59,75.86a.61.61,0,0,1-.12-.22,6.4,6.4,0,0,1-.13-2.21c.13-.52,2.61-3.7,2.79-5.18a30.06,30.06,0,0,1,2-6.49c.09-.07.45-.46,1-1l3.07-1.63.41-2.11c.6-.62,1-1.08,1.19-1.18a9.14,9.14,0,0,0,1.26-1.69l-1.11,12.53,3.5-.31c-.63,1.77-1.58,5.41-1.85,6.09s-.5,1.06-.4,1.27a3.47,3.47,0,0,0,.4.58s-1.13.82-.64,1.73l0,.06C1596.28,111.17,1591.69,111.18,1589.06,110.11Z"/></g></g></svg>