<svg xmlns="http://www.w3.org/2000/svg" xmlns:xlink="http://www.w3.org/1999/xlink" viewBox="0 0 307.85 58.35"><defs><style>.cls-1{fill:none;}.cls-2{clip-path:url(#clip-path);}.cls-3{fill:#fff;}.cls-4{clip-path:url(#clip-path-2);}.cls-5{fill:#f8af35;}.cls-6{fill:#80cef4;}.cls-7{fill:#999145;}.cls-8{fill:#e63b2b;}.cls-9{fill:#008bc7;}.cls-10{fill:#006a47;}.cls-11{fill:#3f3437;}.cls-12{fill:#943730;}</style><clipPath id="clip-path" transform="translate(0 0)"><rect class="cls-1" width="307.85" height="58.35"/></clipPath><clipPath id="clip-path-2" transform="translate(0 0)"><rect class="cls-1" width="307.84" height="58.35"/></clipPath></defs><title>Kiltwalk Logo SVG</title><g id="Layer_2" data-name="Layer 2"><g id="_528056347-preview" data-name="528056347-preview"><g class="cls-2"><path class="cls-3" d="M102.57,16.44h0a5.16,5.16,0,0,1,5.16,5.16V52.71a5.16,5.16,0,0,1-10.32,0V21.6a5.16,5.16,0,0,1,5.16-5.16m5.16-11.09a5.16,5.16,0,1,0-5.16,5.16,5.16,5.16,0,0,0,5.16-5.16" transform="translate(0 0)"/><path class="cls-3" d="M263.07.2h0A5.11,5.11,0,0,0,258,5.31V53a5.12,5.12,0,1,0,10.23,0V5.31A5.11,5.11,0,0,0,263.07.2" transform="translate(0 0)"/><path class="cls-3" d="M118.34.2h0a5.11,5.11,0,0,0-5.12,5.11V53a5.12,5.12,0,1,0,10.23,0V5.31A5.11,5.11,0,0,0,118.34.2" transform="translate(0 0)"/></g><g class="cls-4"><path class="cls-3" d="M247.9,16.44a5.16,5.16,0,0,0-5.16,5.16v0A18.23,18.23,0,0,0,230,16.33c-10.61,0-19.21,9.39-19.21,21s8.6,21,19.21,21A18.28,18.28,0,0,0,242.76,53a5.15,5.15,0,0,0,10.3-.25V21.6a5.16,5.16,0,0,0-5.16-5.16M232,48.35c-5.55,0-10.05-4.94-10.05-11.05s4.5-11,10.05-11,10.06,4.94,10.06,11S237.59,48.35,232,48.35" transform="translate(0 0)"/><path class="cls-3" d="M91.69,49.45,79.6,37.37,91.49,25a5.16,5.16,0,1,0-7.44-7.14L69.51,33V5.35a5.16,5.16,0,0,0-10.32,0V52.88a5.16,5.16,0,1,0,10.32,0V42.28l.27-.14L84.44,56.79a5.16,5.16,0,1,0,7.25-7.34" transform="translate(0 0)"/><path class="cls-3" d="M306.32,49.45,294.23,37.37,306.12,25a5.16,5.16,0,1,0-7.44-7.14L284.13,33V5.35a5.16,5.16,0,0,0-10.31,0V52.88a5.16,5.16,0,1,0,10.31,0V42.28l.28-.14,14.66,14.65a5.16,5.16,0,0,0,7.25-7.34" transform="translate(0 0)"/></g><g class="cls-2"><path class="cls-3" d="M149.91,49.17c-.07,0-8,.26-7.92-7.79V24.82h5.84a4.24,4.24,0,0,0,0-8.47H142V5.23a5,5,0,0,0-10.07,0V16.35h-1.37a4.24,4.24,0,0,0,0,8.47h1.13V42.68c0,13.89,11.45,15.59,17.22,15.59H150a4.47,4.47,0,0,0,4.83-4.55,4.55,4.55,0,0,0-4.89-4.55" transform="translate(0 0)"/></g><g class="cls-4"><path class="cls-3" d="M183.36,25.92h1.13a5.58,5.58,0,0,1,5.22,3.76l5.35,13.76h.16l6.58-23a5.19,5.19,0,0,1,10.28,1,5.25,5.25,0,0,1-.25,1.6l-.08.32-9.16,30.06c-.84,2.67-2.57,4.46-5.16,4.46h-3.21c-2,0-3.55-.69-4.8-3.5l-6-16.33h-.34l-6,16.33c-1.24,2.81-2.77,3.5-4.79,3.5h-3.21c-2.59,0-4.32-1.79-5.16-4.46L154.8,23.35c0-.11-.05-.21-.07-.32a5.25,5.25,0,0,1-.25-1.6,5.19,5.19,0,0,1,10.28-1l6.58,23h.16l5.34-13.76a5.59,5.59,0,0,1,5.23-3.76h1.12" transform="translate(0 0)"/><path class="cls-5" d="M1.53,49.45a5.21,5.21,0,1,0,7.38,7.37L21.8,43.93l-7.38-7.38Z" transform="translate(0 0)"/><path class="cls-5" d="M42.05,16.3h0a5.2,5.2,0,0,0-7.37,0l-5.5,5.5,7.38,7.38,5.49-5.5a5.21,5.21,0,0,0,0-7.38" transform="translate(0 0)"/><path class="cls-6" d="M34.69,56.82a5.21,5.21,0,0,0,7.38-7.37L29.18,36.55,21.8,43.93Z" transform="translate(0 0)"/><path class="cls-6" d="M8.94,16.3a5.22,5.22,0,0,0-7.38,7.38l5.5,5.49,7.38-7.37Z" transform="translate(0 0)"/><rect class="cls-7" x="16.58" y="31.33" width="10.43" height="10.43" transform="translate(-19.46 26.12) rotate(-45)"/><path class="cls-8" d="M42.09,8.91a5.21,5.21,0,0,0,0-7.38h0a5.21,5.21,0,0,0-7.38,0L21.82,14.42l7.37,7.38Z" transform="translate(0 0)"/><path class="cls-8" d="M1.56,34.67a5.22,5.22,0,0,0,7.38,7.38l5.5-5.5L7.06,29.17Z" transform="translate(0 0)"/><path class="cls-9" d="M34.68,42.05a5.21,5.21,0,0,0,7.37-7.37l-5.49-5.5-7.38,7.38Z" transform="translate(0 0)"/><path class="cls-9" d="M8.92,1.53A5.22,5.22,0,0,0,1.54,8.91L14.44,21.8l7.38-7.38Z" transform="translate(0 0)"/></g><g class="cls-2"><rect class="cls-10" x="23.97" y="23.96" width="10.43" height="10.43" transform="translate(-12.08 29.18) rotate(-45)"/><rect class="cls-11" x="16.6" y="16.58" width="10.43" height="10.43" transform="translate(-9.02 21.81) rotate(-45)"/><rect class="cls-12" x="9.22" y="23.96" width="10.43" height="10.43" transform="translate(-16.4 18.75) rotate(-45)"/></g></g></g></svg>